<?xml version="1.0"?>
<svg width="652" height="652" xmlns="http://www.w3.org/2000/svg" xmlns:svg="http://www.w3.org/2000/svg" enable-background="new 0 0 652 652" version="1.1" xml:space="preserve">
 <g class="layer">
  <title>Royal Coat of Arms</title>
  <g id="svg_4">
   <path fill="#FFFFFF" class="st1" d="m280.71,149.71c-3.2,5.94 -5.49,9.15 -5.03,13.26c0.46,4.57 5.03,7.77 7.32,11.89c1.83,-5.03 5.49,-9.15 5.03,-13.26c-0.91,-3.2 -6.4,-8.69 -7.32,-11.89" id="svg_15"/>
   <path fill="#FFFFFF" class="st1" d="m357.54,149.71c3.2,5.94 5.49,9.15 5.03,13.26c-0.46,4.57 -5.03,7.77 -7.32,11.89c-1.83,-5.03 -5.49,-9.15 -5.03,-13.26c0.46,-3.2 6.4,-8.69 7.32,-11.89" id="svg_16"/>
   <path fill="#FFFFFF" class="st1" d="m236.36,146.51c2.74,0 5.03,-2.29 5.03,-5.03c0,-2.74 -2.29,-5.03 -5.03,-5.03c-2.74,0 -5.03,2.29 -5.03,5.03c0,2.74 2.29,5.03 5.03,5.03" id="svg_17"/>
   <path fill="#FFFFFF" class="st1" d="m240.02,153.83c0,-2.74 -2.29,-5.03 -5.03,-5.03c-2.74,0 -5.03,2.29 -5.03,5.03c0,2.74 2.29,5.03 5.03,5.03c2.74,0.46 5.03,-1.83 5.03,-5.03" id="svg_18"/>
   <path fill="#FFFFFF" class="st1" d="m242.3,166.63c0,-2.74 -2.29,-5.03 -5.03,-5.03c-2.74,0 -5.03,2.29 -5.03,5.03c0,2.74 2.29,5.03 5.03,5.03c2.74,0 5.03,-2.29 5.03,-5.03" id="svg_19"/>
   <path fill="#FFFFFF" class="st1" d="m265.17,121.82c2.74,0 5.03,-2.29 5.03,-5.03c0,-2.74 -2.29,-5.03 -5.03,-5.03c-2.74,0 -5.03,2.29 -5.03,5.03c0,2.74 2.29,5.03 5.03,5.03" id="svg_20"/>
   <path fill="#FFFFFF" class="st1" d="m252.36,125.93c2.74,0 5.03,-2.29 5.03,-5.03c0,-2.74 -2.29,-5.03 -5.03,-5.03c-2.74,0 -5.03,2.29 -5.03,5.03c-0.46,2.74 1.83,5.03 5.03,5.03" id="svg_21"/>
   <path fill="#FFFFFF" class="st1" d="m242.3,134.62c2.74,0 5.03,-2.29 5.03,-5.03c0,-2.74 -2.29,-5.03 -5.03,-5.03c-2.74,0 -5.03,2.29 -5.03,5.03c-0.46,2.74 1.83,5.03 5.03,5.03" id="svg_22"/>
   <path fill="#FFFFFF" class="st1" d="m278.88,123.19c2.74,0 5.03,-2.29 5.03,-5.03c0,-2.74 -2.29,-5.03 -5.03,-5.03c-2.74,0 -5.03,2.29 -5.03,5.03c-0.46,2.74 1.83,5.03 5.03,5.03" id="svg_23"/>
   <path fill="#FFFFFF" class="st1" d="m291.69,126.85c2.74,0 5.03,-2.29 5.03,-5.03c0,-2.74 -2.29,-5.03 -5.03,-5.03c-2.74,0 -5.03,2.29 -5.03,5.03c-0.46,2.74 1.83,5.03 5.03,5.03" id="svg_24"/>
   <path fill="#FFFFFF" class="st1" d="m303.58,132.33c2.74,0 5.03,-2.29 5.03,-5.03c0,-2.74 -2.29,-5.03 -5.03,-5.03c-2.74,0 -5.03,2.29 -5.03,5.03c0,2.74 2.29,5.03 5.03,5.03" id="svg_25"/>
   <path fill="#FFFFFF" class="st1" d="m396.4,141.48c0,2.74 2.29,5.03 5.03,5.03c2.74,0 5.03,-2.29 5.03,-5.03c0,-2.74 -2.29,-5.03 -5.03,-5.03c-2.74,-0.46 -5.03,1.83 -5.03,5.03" id="svg_26"/>
   <path fill="#FFFFFF" class="st1" d="m403.26,148.8c-2.74,0 -5.03,2.29 -5.03,5.03c0,2.74 2.29,5.03 5.03,5.03c2.74,0 5.03,-2.29 5.03,-5.03c0,-2.74 -2.29,-5.03 -5.03,-5.03" id="svg_27"/>
   <path fill="#FFFFFF" class="st1" d="m400.52,161.14c-2.74,0 -5.03,2.29 -5.03,5.03c0,2.74 2.29,5.03 5.03,5.03c2.74,0 5.03,-2.29 5.03,-5.03c0.46,-2.29 -2.29,-5.03 -5.03,-5.03" id="svg_28"/>
   <path fill="#FFFFFF" class="st1" d="m372.63,121.82c2.74,0 5.03,-2.29 5.03,-5.03c0,-2.74 -2.29,-5.03 -5.03,-5.03c-2.74,0 -5.03,2.29 -5.03,5.03c0,2.74 2.29,5.03 5.03,5.03" id="svg_29"/>
   <path fill="#FFFFFF" class="st1" d="m385.43,125.93c2.74,0 5.03,-2.29 5.03,-5.03c0,-2.74 -2.29,-5.03 -5.03,-5.03c-2.74,0 -5.03,2.29 -5.03,5.03c0,2.74 2.29,5.03 5.03,5.03" id="svg_30"/>
   <path fill="#FFFFFF" class="st1" d="m395.95,134.62c2.74,0 5.03,-2.29 5.03,-5.03c0,-2.74 -2.29,-5.03 -5.03,-5.03c-2.74,0 -5.03,2.29 -5.03,5.03c-0.46,2.74 1.83,5.03 5.03,5.03" id="svg_31"/>
   <path fill="#FFFFFF" class="st1" d="m359.36,123.19c2.74,0 5.03,-2.29 5.03,-5.03c0,-2.74 -2.29,-5.03 -5.03,-5.03c-2.74,0 -5.03,2.29 -5.03,5.03c-0.46,2.74 1.83,5.03 5.03,5.03" id="svg_32"/>
   <path fill="#FFFFFF" class="st1" d="m346.1,126.85c2.74,0 5.03,-2.29 5.03,-5.03c0,-2.74 -2.29,-5.03 -5.03,-5.03c-2.74,0 -5.03,2.29 -5.03,5.03c0,2.74 2.29,5.03 5.03,5.03" id="svg_33"/>
   <path fill="#FFFFFF" class="st1" d="m329.18,127.3c0,2.74 2.29,5.03 5.03,5.03c2.74,0 5.03,-2.29 5.03,-5.03c0,-2.74 -2.29,-5.03 -5.03,-5.03c-2.74,0 -5.03,2.29 -5.03,5.03" id="svg_34"/>
   <path fill="#FFFFFF" class="st1" d="m309.98,155.2l5.94,0l0,-22.41c-1.83,-0.46 -4.12,-0.91 -5.94,-1.83l0,24.24z" id="svg_35"/>
   <path fill="#FFFFFF" class="st1" d="m327.81,131.42c-1.83,0.91 -3.66,1.37 -5.94,1.83l0,22.41l5.94,0l0,-24.24z" id="svg_36"/>
   <path fill="#FFFFFF" class="st1" d="m315.47,106.73l0,-13.26c-6.4,1.37 -11.43,6.4 -12.8,13.26l12.8,0z" id="svg_37"/>
   <path fill="#FFFFFF" class="st1" d="m322.33,106.73l12.8,0c-0.91,-6.4 -5.94,-11.89 -12.8,-13.26l0,13.26z" id="svg_38"/>
   <path fill="#FFFFFF" class="st1" d="m303.12,113.13c1.83,7.32 8.23,12.8 16,12.8c7.77,0 14.18,-5.49 16,-12.8l-32.01,0z" id="svg_39"/>
   <path fill="#FFFFFF" class="st1" d="m327.81,91.64c-3.66,-2.74 -6.4,-7.32 -6.86,-11.43c4.12,0.91 9.15,3.66 11.89,7.32l0,-17.83c-2.74,3.66 -7.77,6.86 -11.89,7.32c0.46,-4.12 3.2,-8.23 6.86,-12.8l-17.38,0c3.66,4.57 6.4,8.69 6.86,12.8c-4.12,-0.91 -9.15,-3.66 -11.89,-7.32l0,17.83c2.74,-3.66 7.77,-6.86 11.89,-7.32c-0.46,4.57 -3.2,8.69 -6.86,11.43l17.38,0z" id="svg_40"/>
   <path fill="#FFFFFF" class="st1" d="m328.27,463.86c-3.66,0 -6.4,-2.74 -6.4,-6.4c0,-3.66 2.74,-6.4 6.4,-6.4c3.66,0 6.4,2.74 6.4,6.4c0,3.66 -2.74,6.4 -6.4,6.4m-30.64,-9.6c-3.66,0 -6.86,-3.2 -6.86,-6.86c0,-3.66 3.2,-6.86 6.86,-6.86c3.66,0 6.86,3.2 6.86,6.86c0,4.12 -2.74,6.86 -6.86,6.86m-10.52,-30.64l-1.83,-1.37c-3.2,-2.29 -5.94,-2.29 -8.69,0c-1.37,1.37 -2.74,2.74 -3.66,4.12l-1.83,1.83l1.37,0.91c3.2,2.74 3.66,5.49 2.74,7.32c-0.46,0.46 -0.91,0.91 -1.83,1.37c-1.83,0.46 -4.12,0 -6.4,-1.83l-1.37,-0.91l-0.91,1.37c0,0.46 -0.46,0.46 -0.46,0.91c-0.46,0.46 -0.46,0.91 -0.91,1.37c-1.37,2.29 -2.29,4.57 -2.29,5.94c0,0.46 0,0.91 0,1.37c0.46,1.83 1.83,2.74 3.2,3.2l0.91,0.46c1.37,0.91 3.66,2.29 5.03,3.2c-2.74,1.83 -5.94,1.83 -8.69,0.46c-4.57,-2.29 -7.32,-7.32 -7.32,-9.6c0,-3.66 1.83,-8.69 5.03,-13.72l0.46,-0.91l-0.46,-0.91c-0.91,-1.37 -1.83,-3.2 -2.29,-4.57c1.83,0.46 3.2,0.46 5.03,0.91l0.91,0l0.46,-0.46c1.83,-2.29 8.69,-9.15 15.09,-9.15c2.74,0 5.94,1.37 8.23,4.12c1.83,1.83 2.74,4.12 3.2,6.4c-0.91,-0.46 -1.83,-1.37 -2.74,-1.83m59.9,24.24c-16.46,-4.12 -35.67,-10.97 -53.96,-19.21l0,0c0.46,-3.66 -0.91,-7.77 -3.66,-10.97c-2.74,-3.2 -6.4,-5.03 -10.52,-5.03c-1.83,0 -3.2,0.46 -5.03,0.91c-2.74,-2.29 -5.03,-5.03 -7.32,-7.77c-6.86,-8.23 -12.35,-17.38 -16,-27.89c-2.29,-5.94 -3.66,-12.35 -4.57,-18.29c-0.91,5.49 -6.86,12.35 -16.92,12.35c0,-0.91 0,-3.66 -0.91,-4.12c-2.74,2.74 -6.86,6.4 -16,2.74c1.37,7.32 3.2,14.18 5.94,21.03c5.49,14.63 13.26,27.89 23.32,39.33c3.2,3.66 6.86,7.32 10.52,10.52c0,0.91 0,1.37 0,2.29c0,3.66 3.66,10.06 9.15,12.35c4.57,2.29 9.15,1.37 13.26,-1.37c7.77,4.12 17.83,8.23 28.81,11.43c12.35,3.2 24.24,5.49 33.38,5.49c7.77,0 18.29,-3.66 28.81,-10.06c4.12,-2.74 8.23,-5.49 10.97,-8.23c0.46,-0.46 0.91,-0.91 0.91,-0.91c-8.23,0.46 -20.12,-1.83 -30.18,-4.57" id="svg_41"/>
   <path fill="#FFFFFF" class="st1" d="m342.45,514.16c-1.37,-2.29 -2.74,-3.66 -4.57,-3.66c-6.86,0 -4.12,17.38 -11.89,17.38c-3.66,0 -5.49,-2.29 -5.49,-4.57c0,-2.29 1.83,-3.2 1.83,-5.03c0,-1.83 -1.37,-2.74 -3.2,-2.74c-1.83,0 -3.2,0.91 -3.2,2.74c0,1.83 1.83,2.74 1.83,5.03c0,2.29 -1.83,4.57 -5.49,4.57c-7.77,0 -5.49,-17.38 -11.89,-17.38c-1.37,0 -3.2,1.37 -4.57,3.66c-1.37,-2.29 -2.29,-5.03 -2.29,-6.86c0,-3.2 2.29,-7.77 7.77,-7.77c8.69,0 6.86,12.35 10.97,12.35c1.83,0 3.2,-1.37 3.2,-3.2c0,-3.66 -6.4,-6.86 -6.4,-11.89c0,-5.03 4.57,-9.15 9.6,-13.26c5.03,4.12 9.6,8.23 9.6,13.26c0,5.03 -6.4,8.23 -6.4,11.89c0,1.83 1.37,3.2 3.2,3.2c4.12,0 2.29,-12.35 10.97,-12.35c5.03,0 7.77,4.57 7.77,7.77c0.46,1.83 0,4.57 -1.37,6.86m-23.32,24.69c-2.29,0 -4.12,-1.83 -4.12,-4.12c0,-2.29 1.83,-4.12 4.12,-4.12c2.29,0 4.57,1.83 4.57,4.12c-0.46,2.29 -2.29,4.12 -4.57,4.12m17.83,-42.53c-1.37,0 -2.29,0 -3.2,0.46l0,-19.66c-8.69,-0.46 -18.75,-1.83 -28.35,-4.12l0,23.78c-0.91,-0.46 -2.29,-0.46 -3.66,-0.46c-6.86,0 -10.97,5.94 -10.97,10.97c0,5.03 2.74,9.6 5.49,12.8c1.37,-3.2 2.29,-5.49 4.12,-5.49c3.2,0 1.83,16.92 11.89,17.38c-0.46,0.91 -0.46,1.83 -0.46,2.74c0,4.12 3.66,7.77 7.77,7.77c4.12,0 7.77,-3.66 7.77,-7.77c0,-0.91 0,-1.83 -0.46,-2.74c10.06,-0.46 8.23,-17.38 11.89,-17.38c1.83,0 2.74,2.29 4.12,5.49c2.74,-2.74 5.49,-7.77 5.49,-12.8c-0.46,-5.49 -4.57,-10.97 -11.43,-10.97" id="svg_42"/>
   <path fill="#FFFFFF" class="st1" d="m566.05,519.64c-0.46,-0.91 -1.37,-1.37 -2.74,-1.37c-22.86,6.86 -51.21,-12.35 -78.65,-30.64c-23.32,-15.55 -44.81,-29.72 -63.56,-29.72c-6.86,0 -13.26,1.37 -18.29,4.12c-6.4,3.66 -11.43,9.15 -14.63,16.92c-3.2,7.77 -6.4,12.8 -9.15,16.92c-3.2,5.03 -5.49,8.69 -5.49,13.26c0,3.66 1.37,6.86 4.57,10.06c2.74,2.74 6.4,5.03 11.89,8.23c1.37,0.46 2.29,1.37 3.66,1.83c4.57,2.29 7.32,3.66 7.77,6.4c-9.15,4.12 -20.58,7.32 -33.84,9.6c-15.09,2.74 -31.55,4.12 -48.93,4.12c-17.38,0 -33.84,-1.37 -48.93,-4.12c-13.26,-2.29 -25.15,-5.49 -34.3,-9.6c0.46,-3.66 3.2,-5.49 8.23,-7.77c1.37,-0.46 2.29,-0.91 3.66,-1.83c4.57,-2.29 8.69,-4.57 11.89,-7.32c3.2,-2.74 4.57,-5.94 4.57,-9.6c0,-4.57 -2.29,-8.23 -5.49,-13.26c-2.74,-4.12 -5.94,-9.6 -9.15,-16.92c-3.2,-7.77 -8.23,-13.26 -14.63,-16.92c-5.49,-2.74 -11.43,-4.57 -18.29,-4.57c-18.75,0 -40.7,14.63 -63.56,29.72c-27.44,18.29 -55.79,37.04 -78.65,30.64c-0.91,-0.46 -2.29,0.46 -2.74,1.37c-0.46,0.91 0,2.29 0.91,2.74c6.86,3.2 13.26,7.77 19.21,12.35c8.23,6.4 16,12.35 24.69,12.35c8.23,0 16.92,-2.74 27.44,-8.23c9.15,-5.03 18.75,-11.43 27.89,-17.83c18.29,-12.35 36.58,-25.15 54.42,-26.52c-1.83,1.83 -3.66,3.66 -5.49,5.03c-5.03,4.57 -9.6,8.69 -9.6,16.92c0,6.4 2.29,10.97 5.49,17.38c0.91,1.83 1.83,4.12 2.74,6.4c1.83,4.57 2.74,7.77 4.12,12.8c0.46,2.29 0.91,4.57 1.83,7.32c0.91,4.12 3.2,11.89 16,18.75c15.09,7.77 41.15,11.43 77.28,11.43c36.12,0 62.19,-4.12 77.28,-11.43c12.8,-6.4 15.09,-14.63 16,-18.75c0.91,-2.74 1.37,-5.03 1.83,-7.32c1.37,-5.03 1.83,-8.23 4.12,-12.8c1.37,-3.2 2.74,-5.94 4.12,-8.23c2.74,-5.03 5.03,-9.15 5.03,-15.09c0,-8.23 -4.57,-12.35 -10.06,-17.38c-1.83,-1.37 -3.66,-3.2 -5.49,-5.03c17.83,1.37 36.58,14.18 54.42,26.52c9.15,6.4 18.75,12.8 27.89,17.83c10.52,5.49 19.21,8.23 27.44,8.23c8.69,0 16.46,-5.94 24.69,-12.35c5.94,-4.57 11.89,-9.6 19.21,-12.35c1.37,0 1.83,-1.37 1.37,-2.29" id="svg_43"/>
   <path fill="#FFFFFF" class="st1" d="m322.33,342.22l0,-85.97c9.15,0.46 17.83,2.74 26.06,6.86c8.69,4.57 16.92,10.52 23.78,18.75c6.86,8.23 12.35,17.38 16,27.89c3.66,10.52 5.49,21.49 5.94,32.47l-71.79,0zm-3.2,-122.09c-24.24,0 -41.15,7.32 -50.76,13.72c-5.49,-3.2 -8.23,-6.86 -8.23,-10.52c0,-13.72 38.87,-15.09 58.99,-15.09l0,0l0,0c19.66,0 58.99,1.37 58.99,15.09c0,3.66 -2.29,7.32 -8.23,10.52c-9.6,-6.4 -26.52,-13.72 -50.76,-13.72m-1.37,122.09l-73.16,0c0,-11.43 2.29,-22.41 5.94,-32.47c3.66,-10.52 9.15,-19.66 16,-27.89c6.86,-8.23 14.63,-14.18 23.78,-18.75c8.69,-4.12 17.83,-6.4 27.44,-6.86l0,85.97zm111.12,-5.49c-2.74,-1.83 -6.86,-5.94 -8.69,-10.06c-2.74,-5.49 -14.18,-27.89 -16,-31.09c-1.37,-2.29 -2.29,-4.57 -2.29,-6.86c0,-2.29 1.37,-4.12 2.29,-5.94c0.91,-0.91 3.2,-3.66 4.12,-5.03c0.91,-0.91 1.37,-1.83 1.83,-2.74c-4.12,-7.32 -8.23,-12.35 -13.72,-18.75c-6.86,-7.32 -14.18,-13.72 -22.41,-19.21c4.57,-2.74 8.69,-6.86 8.69,-13.72c0,-4.12 -1.83,-7.32 -4.57,-9.6c4.57,-14.63 12.8,-32.47 19.66,-40.24l-14.63,-6.4c3.66,5.94 4.12,12.8 3.2,16.46c-3.66,-2.74 -7.32,-6.4 -8.23,-10.97c-0.91,4.57 -3.2,11.43 -5.49,16c4.12,-1.83 7.77,-2.74 11.89,-0.91c-2.29,3.2 -8.69,8.69 -18.29,6.4c-5.03,-1.37 -10.52,-4.12 -10.06,-8.23c0,-2.29 1.83,-5.49 5.03,-5.03c3.2,0.46 3.2,5.03 2.29,7.32c4.12,-2.29 8.69,-14.63 1.83,-16.46c-5.03,-1.37 -10.06,5.49 -11.43,10.97c-0.91,-6.4 -3.66,-12.8 -8.69,-12.35c-6.86,0.46 -4.57,12.8 -2.29,16c0.46,-4.57 2.74,-6.86 5.03,-6.4c1.83,0 4.12,1.37 3.66,5.49c-0.46,4.12 -5.94,6.4 -12.8,6.4c-6.4,0 -16.92,-1.83 -18.29,-13.72c4.12,0.91 10.52,3.66 13.26,7.77c-0.91,-7.32 -0.91,-12.35 0,-20.12c-3.2,4.57 -9.15,7.32 -12.8,7.77c0.91,-5.03 5.49,-10.52 10.52,-13.72l-26.52,0c5.03,3.2 9.6,8.69 10.52,13.72c-4.12,-0.46 -9.6,-3.2 -12.8,-7.77c0.91,7.32 0.91,12.8 0,20.12c2.74,-4.12 8.69,-6.86 12.8,-7.77c-0.91,11.89 -11.89,13.72 -18.29,13.72c-6.4,0 -12.35,-2.29 -12.8,-6.4c-0.46,-4.12 1.83,-5.49 3.66,-5.49c1.83,0 4.57,2.29 4.57,6.4c2.29,-3.2 4.57,-15.55 -2.29,-16c-5.03,-0.46 -7.77,5.94 -9.15,12.35c-1.83,-5.49 -6.4,-12.35 -11.43,-10.97c-6.4,1.83 -2.29,14.18 1.83,16.46c-0.91,-2.29 -0.91,-6.86 2.29,-7.32c3.2,-0.46 5.03,2.74 5.03,5.03c0.46,4.12 -5.03,6.86 -10.06,8.23c-9.6,2.29 -16,-2.74 -18.29,-5.94c4.57,-1.83 7.77,-0.91 12.35,0.91c-2.29,-4.12 -4.57,-11.43 -5.49,-16c-0.91,5.03 -4.57,8.69 -8.23,11.43c-0.91,-4.12 -0.46,-10.97 3.2,-16.46l-14.63,6.4c6.86,7.77 15.09,25.61 19.66,40.24c-2.74,2.29 -4.57,5.49 -4.57,9.6c0,6.86 4.57,10.97 8.69,13.72c-8.23,5.49 -15.55,11.89 -21.95,19.21c-10.06,11.43 -17.83,24.24 -23.32,39.33c1.83,2.29 10.97,11.89 12.8,14.18c3.66,4.57 5.94,9.15 5.94,12.8c0,6.86 1.83,9.15 5.03,13.72c0.91,1.37 2.74,6.4 2.74,9.6l73.16,0l0,79.57c-2.74,0 -5.94,0.91 -8.23,4.12c8.23,3.2 16.46,6.4 24.69,9.15c0.91,-5.03 1.83,-8.23 4.57,-11.43c0,0 -10.52,-0.91 -16.46,-1.37l0,-79.57l73.16,0c-0.46,10.97 -2.29,21.49 -5.94,31.55c-3.66,10.52 -9.15,19.66 -16,27.89c-6.86,8.23 -14.63,14.18 -23.78,18.75c-1.37,0.91 -1.37,1.83 -2.74,2.29c-1.37,1.37 -2.29,3.66 -3.66,6.4c-0.91,2.29 -1.37,4.12 -1.83,7.32c3.2,0.91 5.03,1.37 8.23,2.29c25.15,6.4 31.09,4.57 32.47,3.2l0,0c5.49,-4.12 10.97,-9.15 15.55,-14.63c10.06,-11.43 17.83,-24.69 23.32,-39.33c5.94,-15.09 8.69,-31.55 8.69,-48.01c0.91,-4.57 0.91,-5.49 0.91,-8.23" id="svg_44"/>
   <path fill="#FFFFFF" class="st1" d="m362.11,291.01c-0.46,0.46 -0.91,1.37 -0.91,1.83c0.46,0.91 0.91,1.37 2.29,1.37c-0.91,0.46 -1.37,1.83 -1.83,3.2c1.37,0 2.29,0 3.2,-0.91c-0.46,1.37 0,1.83 0.91,2.29c0.46,0.46 1.37,0.46 1.83,0c5.49,8.69 9.15,18.75 10.52,28.81c-0.46,-0.46 -1.37,-0.91 -2.74,-0.91c0,1.37 0.46,2.74 1.37,3.2l-17.83,0c0,-0.91 -0.46,-2.29 -1.37,-2.29c-0.91,-0.46 -1.37,0 -2.29,0.91c0,-0.91 -0.46,-2.29 -1.37,-3.2c-0.91,0.91 -1.37,2.29 -1.37,3.2c-0.91,-0.91 -1.83,-0.91 -2.29,-0.91c-0.91,0.46 -1.37,1.37 -1.37,2.29l-14.63,0c0.46,-0.91 0.91,-1.83 0.91,-3.2c-1.37,0 -2.29,0.46 -3.2,0.91l0,-24.69c1.37,0 2.29,-0.46 2.29,-1.37c0.46,-0.91 0,-1.83 -0.91,-2.29c0.91,0 2.29,-0.46 3.2,-1.37c-0.91,-0.91 -2.29,-1.37 -3.2,-1.37c0.91,-0.91 0.91,-1.83 0.91,-2.29c-0.46,-0.91 -1.37,-1.37 -2.29,-1.37l0,-21.03c0.46,0.46 1.37,0.91 2.74,0.91c0,-1.37 0,-2.29 -0.91,-3.2c4.57,1.37 9.15,3.66 13.72,6.86c5.49,5.03 10.52,9.6 14.63,14.63m20.12,37.04c1.37,0.91 0.91,2.74 -0.91,2.74c-1.37,-12.8 -6.4,-25.61 -13.72,-36.12c0,0 0,0 0,0c1.37,-0.46 2.74,-1.83 3.2,-3.66c-2.29,-0.46 -3.66,0.91 -4.57,1.83c-0.46,-0.91 -0.91,-1.37 -1.37,-1.83c-4.57,-5.94 -9.6,-10.52 -15.55,-14.63c-5.49,-3.66 -11.43,-6.4 -17.38,-7.77c0,-1.37 1.83,-1.83 2.74,-0.46c0,-2.29 -1.83,-3.2 -2.74,-2.74c-0.46,0 -1.37,0.91 -1.37,1.83c-0.91,-0.91 -1.83,-1.37 -3.2,-1.83c0,1.37 0.46,2.74 0.91,3.2c-0.91,0 -1.37,0.46 -1.83,0.91c-0.46,0.91 0,3.2 2.29,3.2c-0.91,-0.91 -0.46,-2.74 0.91,-2.74l0,27.89c-1.37,-0.46 -3.2,-0.46 -4.57,1.37c1.37,1.37 3.2,1.83 4.57,1.37l0,30.18c-1.37,0 -1.83,-1.83 -0.91,-2.74c-2.29,0 -3.2,1.83 -2.74,3.2c0.46,0.91 0.91,1.37 2.29,0.91c-0.91,0.91 -1.37,1.83 -1.37,3.2c1.37,0 2.29,-0.46 3.2,-1.37c0,1.37 0.46,1.83 1.37,2.29c0.91,0.46 3.2,-0.46 3.2,-2.74c-0.91,1.37 -2.74,0.91 -2.74,-0.46l21.03,0c-0.46,1.37 0,3.2 1.37,4.57c1.37,-1.37 1.83,-3.2 1.37,-4.57l23.32,0c0,1.37 -1.83,1.83 -2.74,0.91c0,2.29 2.29,3.2 3.2,2.74c0.91,-0.46 1.37,-0.91 0.91,-2.29c0.91,0.46 1.83,0.91 3.2,0.91c0,-1.37 -0.46,-2.29 -1.37,-3.2c1.37,0 1.83,-0.46 2.29,-1.37c0.91,-0.91 0,-2.74 -2.29,-2.74" id="svg_45"/>
   <path fill="#FFFFFF" class="st1" d="m369.88,320.27c0.91,-0.46 1.83,-0.91 1.83,-1.83c-0.91,0.46 -1.83,0 -1.83,-0.46c0.91,-0.46 1.37,0 0.91,-1.37c-0.91,-1.37 -1.37,-1.37 -2.29,-0.46c-0.91,0.91 -6.4,-0.46 -6.4,-4.57c0.46,0.91 0.91,1.37 1.83,1.83c0,0 0.46,0 0.46,0.46c0.46,0 0.46,0 0.91,0c0.46,0 0.91,0.46 1.83,0.46c0,0 0.46,0 0.46,0l0,0c1.37,-0.46 2.29,-0.91 2.29,-2.29c0,-2.29 -1.83,-3.2 -4.57,-5.49c-0.91,-0.91 -1.83,-1.37 -2.29,-2.29c-0.91,-1.83 -0.46,-3.2 -2.29,-6.4c0,-0.91 -0.46,-1.37 -0.91,-2.74c-0.91,1.83 -1.83,5.94 1.37,9.15c2.29,2.74 7.32,5.03 7.32,7.32c0,0.46 -0.46,0.91 -1.37,0.91c0,0 -0.46,0 -0.91,0c0,0 -0.46,0 -0.46,0c-0.46,0 -0.91,0 -0.91,-0.46c-0.46,-0.46 -0.91,-0.91 -1.83,-1.37c-2.29,-1.83 -4.12,-5.03 -5.03,-6.4c-2.29,-3.2 -1.37,-5.94 -0.91,-8.23c1.83,-2.29 -0.91,-6.86 -2.74,-8.23c0,0 0.46,-0.91 0,-2.29c-0.46,0.46 -0.91,0 -1.37,0c-0.46,-0.91 -0.46,-0.91 -1.37,-0.91c-0.91,0 -0.91,-0.91 -0.91,-0.91c-0.46,0.46 -0.91,0.91 -1.37,0.91c-0.91,0 -1.37,0 -1.37,0.46c-0.46,0.46 -0.91,0.46 -1.83,0.46c-0.91,0 -0.91,0.46 -0.91,1.37c0,0.46 0,0.91 0.91,1.37c0,0 0,0 0.46,0l0.91,0.91l0.46,-0.91c0.46,-0.46 1.83,-0.46 1.83,0.46c0,0.46 0.46,0.91 -0.46,0.91c-0.91,0 -1.37,0 -1.83,0c-0.46,0 -0.46,0.91 -0.46,1.37c0,0.46 0.46,0.91 1.83,0.46c1.37,-0.46 3.2,-0.46 3.2,0.46c0,2.74 -2.74,2.29 -3.66,5.49c-0.91,-0.46 -1.37,-0.91 -1.83,-1.83c-0.46,-0.91 -0.91,-1.83 -2.29,-2.74c-0.46,-0.46 -1.37,-1.37 -2.29,-1.83c-0.91,-0.46 -0.91,-0.91 -0.91,-2.29c0,-0.91 0.46,-1.83 0.46,-2.74c0,0 0,-0.46 -0.46,-0.91c0,-0.46 -0.91,-0.91 -1.37,-0.91c0,0 0.46,0.46 0.46,0.91c0,0 -0.46,0.46 -0.46,0.46c0,0 -0.46,0.46 0,0.91c0,0 0,0 0,0c0,0 0,0 0,0.46c0,0 0,0 0,0c-0.46,-0.46 -0.46,-1.37 -0.91,-1.83c0,0 -0.46,0 -0.46,0c0,0 0,0 0,0c0,-0.46 -0.91,-1.37 -1.37,-0.46c0,0 0.46,0 0.46,0.46c0,0 0,0.46 0,0.46c0,0.46 0.46,0.91 1.37,0.91c0,0 0,0 0,0c0,0 0,0 0,0.46c0,0 0,0 0,0c-1.37,-0.46 -1.83,0 -1.83,0.46c0,0 0,0.46 0,0.46c-0.46,0.46 -0.46,0.91 0.46,1.37c0,0 0,-0.46 0,-0.91c0,0 0,0 0,0c0,0 0.46,0.46 0.46,0.46c0,0 0.46,0 0.46,0c0,0 0,0 0.46,0c0,0 0,0 0.46,0c0,0 0,0 0,0c-0.91,0.91 -0.46,1.37 0.46,1.83c-0.46,0.91 -1.83,0.46 -1.83,-0.91c-0.91,1.83 0.46,2.74 1.83,2.29c0,0.46 0,1.83 0,1.83c0,0 0,-0.46 0.46,-0.46c0,0 0,0 0,0c0,0.46 0,0.91 0.91,0.91c0,-0.46 0,-0.46 0,-0.46c0,0.46 0.46,0.91 0.46,0.91c0.46,1.37 1.83,4.12 5.03,5.49c-1.37,0.91 -2.74,2.29 -3.66,3.2c-0.91,0.91 -2.29,1.83 -2.74,1.37c-0.46,-0.46 -0.46,-0.46 -0.91,-0.91c-0.46,-0.46 -0.91,-0.46 -0.91,-0.46c0,0 -0.46,0 -0.46,0c-0.46,0 -1.37,0 -1.37,0.46c0.46,0 0.46,0 0.91,0c0,0 0,0.46 0,0.46c0,0.46 0.46,0.91 1.83,0.46c0,0 0.46,0 0,0c0,0 -0.46,0.46 -0.91,0c-0.91,0 -0.91,-0.91 -1.37,0c0,0 0,0.46 -0.46,0.46c0,0 0,0 0,0c-0.46,0 -1.37,1.37 -0.46,1.83c0,0 0,-0.46 0.46,-0.91c0,0 0.46,0.46 0.46,0.46c0.46,0.46 0.91,0.91 1.83,-0.46c0,0 0,0 0,0c0,0.91 -0.91,1.83 0,1.83c0,0 0.46,0 0.46,0c0,0 0,0 0,0c0,0.91 1.37,0.91 1.83,0.91c-0.46,0 -0.91,-0.46 -0.91,-0.91c0,0 0.46,0 0.46,0c0.46,-0.46 0,-1.37 0,-1.83c0,0 0,0 0,0c0,0.46 0.46,0.91 1.37,0.46c0.46,-0.46 0.46,-0.46 0.46,-0.91c0.91,-0.46 1.83,-0.91 2.74,-0.46c0,-0.46 0.46,-1.37 1.83,-1.83c0.91,-0.46 1.83,0 1.83,0.46c0,-0.46 0.46,-1.37 0.91,-1.83c0,4.57 5.94,4.57 7.32,6.86c-1.83,-0.91 -3.66,-1.37 -5.03,-0.91c-1.37,0.46 -4.12,1.83 -4.57,3.2c-0.46,1.37 1.37,3.66 2.74,4.57c-1.83,0.46 -2.29,0 -4.12,0c0,0 0,0 0,0c-1.37,0 -1.37,-2.29 -3.2,-1.83c0,0 -0.46,0 -0.46,0.46l0,0c-0.46,0 -1.37,0.91 -1.37,1.37c0,0 0.46,-0.46 0.91,-0.46c0,0 0,0.46 0,0.46c0,0.46 0,0.46 0.46,0.46c0.46,0 0.46,0 0.46,0c0,0 0,0 0,0c0,0.46 -1.83,-0.46 -1.83,1.37c0,0 0,0.46 0.46,0.46c0,0.46 0.46,0.91 1.37,0.91c0,0 -0.46,-0.46 -0.46,-0.46c0,0 0.46,0 0.46,0c0,0 0,0 0,-0.46c0,0 0,0 0,0c0,0 0,0 0,0c0,0 0,0 0,0.46c0,0 0,0.46 0,0.46c0,0.46 0.91,1.37 1.83,0.46c-0.46,0 -0.91,0 -0.91,-0.46c0,0 0.46,0 0.46,0c0,0 0,-0.46 0,-0.46c0,0 0,0 0,0c0,0 0.46,0 0.46,0c0,0 0,0 0.46,0c0,0.46 0.46,0.91 1.37,0.46c0.46,0 0.46,-0.46 0.46,-0.46c0.46,0 0.46,0.46 0.91,0.46c0,-0.46 0.46,-1.37 1.83,-0.46l0.91,-0.91c0,0 1.37,0.46 1.83,0c0.91,-0.91 0.46,-0.91 0.46,-1.37c-0.46,-1.37 -0.91,-1.37 -1.37,-2.29c-0.46,-2.29 2.74,-3.66 4.57,-3.2c0.46,1.37 2.29,5.03 5.49,6.4c1.83,0.91 2.74,-1.37 3.66,-1.37c0,0 0.46,0.46 0.46,0.46c0,0.91 0,1.83 0,2.29c0,0.46 -1.37,0 -2.29,0c-0.46,0 -0.91,0.46 -0.91,0.46c-0.46,0 -1.37,0.46 -1.37,1.37c0.46,0 0.46,-0.46 1.37,-0.46c0,0 0,0.46 0,0.46c0,0.91 0.91,1.37 1.83,0.46c0,0 0.46,0 0,0c-0.46,0.46 -1.37,1.37 -0.46,1.37c0,0 0.46,0 0.46,0c0,0.46 0.46,0.91 0.91,1.37c0,-0.46 0,-0.46 0,-0.91c0,0 0.46,0 0.46,0c0.46,0 0.46,-0.91 0.91,-1.37c0,0 0,0 0,0c0,0.46 -0.46,1.37 0.46,1.37c0,0 0.46,0 0.46,0c0,0.46 0.91,0.91 1.37,0.46c0,0 -0.46,-0.46 -0.91,-0.46c0,0 0.46,-0.46 0.46,-0.46c0.46,-1.37 -0.91,-1.37 -0.91,-1.83c0,-0.46 1.37,-0.46 1.37,-1.37c0,0 0,0 0,0c0.46,-0.46 1.37,-0.91 1.37,-1.37c0,3.2 -0.46,2.74 -0.46,2.74l0,0z" id="svg_46"/>
   <path fill="#FFFFFF" class="st1" d="m303.12,360.06l-0.91,0c-0.91,0 -2.74,0.46 -2.74,1.83c0,1.37 0.91,2.29 2.29,2.29l0.91,0c0,0.46 0,0.46 0,0.91c-0.46,2.29 -0.91,5.94 -1.37,10.06l-10.97,-15.55c5.03,-1.83 9.15,-4.12 11.43,-4.12c1.37,0 1.83,0.91 1.37,4.57m-4.12,26.98l-17.38,-24.69c1.83,-0.46 3.66,-0.91 5.49,-1.83l12.8,18.29c0,3.2 -0.46,5.94 -0.91,8.23m-1.83,11.43l-24.24,-34.75c0.91,0 1.37,0 2.29,0c1.37,0 2.29,0 3.66,-0.46l19.66,27.89c-0.46,2.74 -0.91,5.03 -1.37,7.32m-27.44,-34.75l26.52,38.41c-14.18,-5.94 -28.35,-18.75 -26.52,-38.41m39.78,-3.2l-1.37,0l0,-1.37c0,-4.12 -2.29,-7.32 -6.86,-7.32c-4.12,0 -11.89,5.49 -23.32,5.49c-4.57,0 -10.52,-2.29 -13.72,-4.57l-1.37,3.2c0,0 0,0 0,-0.46c0,-1.37 -1.37,-2.74 -2.74,-2.74c-1.37,0 -2.74,1.37 -2.74,2.74c0,1.37 1.37,2.74 2.74,2.74c0.91,0 1.83,-0.46 2.29,-0.91l-1.37,3.2c0.46,0 0.91,0.46 1.37,0.46c-1.83,16.92 10.97,38.41 32.92,44.81c3.2,-0.91 6.4,-0.46 6.4,3.2c0,2.29 -0.91,3.2 -3.2,3.2c-1.37,0 -2.29,-0.91 -2.29,-1.83c0,-1.37 2.74,-0.46 2.74,-1.83c0.46,-1.37 -0.46,-1.83 -1.83,-1.83c-1.37,0 -3.66,0.91 -3.66,3.66c0,3.2 2.29,5.03 5.03,5.03c2.29,0 7.77,-1.37 6.86,-7.32c1.37,0 2.29,0 2.74,-1.37l0.46,-3.2l-1.37,0l0.91,-38.41l0.91,0c1.37,0 2.74,-0.46 2.74,-1.83c0,-1.83 -0.91,-2.74 -2.29,-2.74" id="svg_47"/>
   <path fill="#FFFFFF" class="st1" d="m289.86,279.12c0,-0.46 0.46,-0.46 0.46,-0.46c0.46,0 0.46,0 0.46,-0.46c0,-0.46 0,-0.46 -0.46,-0.91c0.46,0 0.46,0 0.46,-0.46c0,0 -0.46,0 -0.46,0c0,0 0,-0.46 0.46,-0.46c0,0 0.46,0 0.46,0l1.37,0.46c0,0 0.46,0 0.46,0.46c0,0 0,0.46 0,0.46c0,0 0,-0.46 -0.46,-0.46c0,0 0,0 0,0.46c-0.46,0 -0.46,-0.46 -0.91,0c0,0.46 0,0.46 0,0.91c0,0 0,0.46 0,0.46c0,0.46 -0.46,0.91 -0.91,0.46c-0.91,0.46 -0.91,0 -0.91,-0.46m1.83,-3.66c0,0.46 -0.91,0.91 -0.91,0.46c-0.46,-0.46 0,-0.46 -0.46,-1.37c0.46,0.46 0.91,0.91 1.37,0.91m0.91,0.91c0,0 1.37,0.46 1.83,0.46c-0.91,0 -0.46,0.46 -0.91,0.46c-0.91,0 -0.91,-0.46 -0.91,-0.91m-3.66,0.91c0,0 0,0 0,0c0,0 0,0 0,0m16,5.49c5.03,0 7.77,-1.83 7.77,-3.2c0,-5.94 -14.18,-2.29 -14.18,-5.94c0,-0.46 0.46,-0.91 0.91,-1.37l0,0c7.32,-0.46 7.32,-5.49 12.35,-6.4c-6.4,-0.91 -6.86,4.12 -9.6,4.12c1.37,-0.46 1.83,-2.29 1.83,-3.2c-1.37,1.83 -4.12,1.83 -5.49,3.66c0,0.46 -0.46,0.91 -0.46,0.91c-0.91,0.46 -1.37,1.37 -1.37,2.29c0,5.49 14.63,1.83 14.63,5.49c0,1.37 -2.29,2.29 -6.4,2.29c-3.2,0 -5.03,-2.29 -10.52,-0.91c0,-0.91 1.83,-2.74 0.91,-3.66c0.46,0 0.91,-0.46 0.91,-0.91c-0.46,-0.46 -0.91,-0.46 -0.91,-0.46c0,-0.46 0,-0.46 -0.46,-0.91c0,0 0,-0.46 -0.46,-0.91c0,0 -0.46,-0.46 -1.37,-0.91c-0.46,-0.46 -0.91,-0.46 -1.37,-0.46c0,0 -0.91,0 -0.91,0c-0.46,0 -0.91,0 -0.91,0.46c-0.46,-0.46 -0.46,-0.46 -0.91,-0.46c0,0.46 -0.46,0.91 0,1.37c-0.46,0 -0.91,1.37 -1.37,1.37c0,0.46 0.46,0.46 0.46,0.46c-0.46,0.91 -0.46,1.83 -0.91,1.83c0,0 0.46,0.46 0.46,0.46c-0.46,1.37 -0.46,2.74 -0.91,3.2l0,0c-0.46,-0.46 -0.91,-0.46 -1.37,-0.91c-0.91,-0.46 -0.91,-0.91 -0.46,-1.83c0,-0.91 0.46,-1.37 0.46,-1.83c0,0 0,-0.46 0,-0.46c0,-0.46 -0.91,-0.91 -0.91,-0.91c0,0 0.46,0.46 0.46,0.91c0,0 -0.46,0.46 -0.46,0.46c0,0 -0.46,0.46 0,0.91c0,0 0,0 0,0c0,0 0,0 0,0.46c0,0 0,0 0,0c0,-0.46 -0.46,-1.37 -0.91,-1.37c0,0 -0.46,0 -0.46,0c0,0 0,0 0,0c0,-0.46 -0.46,-0.91 -1.37,-0.46c0,0 0.46,0 0.46,0c0,0 0,0.46 -0.46,0.46c0,0.46 0.46,0.91 0.91,0.91c0,0 0,0 0,0c0,0 0,0 0,0.46c0,0 0,0 0,0c-0.91,-0.46 -1.37,0 -1.83,0.46c0,0 0,0.46 0,0.46c-0.46,0 -0.46,0.91 0,0.91c0,0 0,-0.46 0.46,-0.46c0,0 0,0 0,0c0,0 0,0 0,0.46c0,0 0.46,0 0.46,0c0,0 0,0 0.46,0c0,0 0,0 0.46,0c0,0 0,0 0,0c-0.91,0.46 -0.91,1.37 0,1.37c0,0 0,0 0,0c-0.46,1.37 -1.83,0.91 -1.83,0c-1.37,1.37 0.46,2.29 1.83,1.83c0,0 0,0 0,0c0,0.46 0,0.46 0.46,0.46c0,0 0,-0.46 0.46,-0.46c0,0 0,0 0,0c0,0.46 0,0.91 0.46,0.91c0,-0.46 0,-0.46 0,-0.46c0,0 0.46,0.91 1.37,1.83c-1.37,0.46 -3.2,0.91 -3.2,0.91c-0.46,0 -1.83,0 -2.74,0c-0.91,0.46 -2.74,1.37 -3.66,0.46c0,-0.46 0,-0.46 -0.46,-0.91c0,-0.46 -0.46,-0.46 -0.46,-0.46c0,0 -0.46,0 -0.46,0c-0.46,-0.46 -0.91,-0.46 -1.37,0c0.46,0 0.46,0 0.91,0.46c0,0 0,0.46 0,0.46c0,0.46 0,0.46 1.37,0.91c0,0 0,0 0,0c0,0 -0.46,0 -0.91,0c-0.46,-0.46 -0.46,-0.91 -1.37,-0.46c0,0 0,0 -0.46,0c0,0 0,0 0,0c-0.46,0 -1.37,0.46 -0.91,1.37c0,0 0.46,-0.46 0.91,-0.46c0,0 0,0.46 0,0.46c0,0.46 0.46,1.37 1.83,0.46c0,0 0,0 0,0c-0.46,0.46 -1.37,0.91 -0.46,1.37c0,0 0,0 0.46,0c0,0 0,0 0,0c0,0.91 0.46,1.37 0.91,1.37c0,0 -0.46,-0.46 -0.46,-0.91c0,0 0.46,0 0.46,0c0.46,-0.46 0.46,-0.91 0.46,-1.37c0,0 0,0 0,0c0,0.46 0,0.91 0.91,0.91c0.91,0 0.91,-0.91 0.91,-0.91c0,0 0,0 0,0c0.46,0 0.46,0.46 0.46,0.91c0,0 0.46,-0.46 0.46,-0.46c0,0.46 0,0.91 -0.46,1.37c0.46,0 0.91,-0.46 1.37,-1.37c0,0 0,0.46 0.46,0.46c0,0 0,0 0,0c0.46,0 0.91,0 1.37,0c0,0 0,0 0,0c0,0.46 0,0.46 0,0.91c0,0 0,-0.46 0.46,-0.46c0,0 0,0.91 0.46,1.37c0,-1.83 1.37,-1.37 2.29,-1.83c0,0 0,0 0,0c0,0 -0.46,0.46 -0.46,0.46c0.46,0 1.37,-0.46 1.37,-0.91c0,0 0.46,-0.46 0.91,-0.46c0.46,0 0.91,0 1.37,-0.46c0,0 0.46,0.91 0,0.91c1.37,0 2.74,-1.37 3.2,-1.37c2.74,-0.46 -1.83,-2.74 4.12,-2.29c0.46,0 1.37,-0.46 1.83,-0.46c-0.46,0.91 -0.46,2.74 0.46,2.74c0.46,0 0.91,0.46 1.37,0.46c0,0 0,0 0,0c-0.46,0 -0.91,0 -1.37,0.46c-1.37,0.91 -1.37,-1.83 -2.74,-1.37c0,0 -0.46,0 -0.46,0.46c-0.46,0 -1.37,0.46 -1.37,1.37c0,0 0.46,-0.46 0.91,-0.46c0,0 0,0.46 0,0.46c0,0 0,0.46 0.46,0.46c0.46,0 0.46,0 0.46,0c0,0 0,0 0,0c0,0.46 -1.83,-0.46 -1.37,1.37c0,0 0,0.46 0.46,0.46c0,0.46 0.46,0.91 0.91,0.46c0,0 -0.46,-0.46 -0.46,-0.46c0,0 0.46,0 0.46,0c0,0 0,0 0,-0.46c0,0 0,0 0,0c0,0 0,0 0,0c0,0 0,0 0,0.46c0,0 0,0.46 0,0.46c0,0.46 0.91,0.91 1.37,0.46c0,0 -0.46,0 -0.91,-0.46c0,0 0.46,0 0.46,0c0,0 0,-0.46 0,-0.46c0,0 0,0 0,0c0,0 0.46,0 0.46,0c0,0 0,0 0.46,0c0,0.46 0.46,0.46 0.91,0.46c0.91,-0.46 0,-0.91 0.91,-1.37c0,0 0.46,0 0.46,0c0.91,0 1.83,0 1.83,0c0,-0.46 0,-1.83 -0.46,-2.29c-0.46,0 0,-0.91 -0.46,-1.37c0.91,0.46 1.83,0.46 2.74,0.46c1.83,0 0,-0.46 0.91,-0.91c0.91,-0.46 2.29,-0.46 2.29,-0.46c0.46,0 0.46,0 0.46,0.46c0,0.91 0,1.37 0,1.83c0,0.46 -0.91,0 -1.83,0c-0.46,0 -0.46,0 -0.46,0.46c-0.46,0 -0.91,0.46 -0.91,0.91c0,0 0.46,-0.46 0.91,-0.46c0,0 0,0 0,0c0,0.91 0.91,0.91 1.37,0.46c0,0 0.46,0 0,0c-0.46,0.46 -1.37,0.91 -0.46,1.37c0,0 0,0 0.46,0c0,0.46 0.46,0.91 0.46,0.91c0,-0.46 0,-0.46 0,-0.91c0,0 0.46,0 0.46,0c0.46,0 0.46,-0.91 0.91,-0.91c0,0 0,0 0,0c0,0.46 -0.46,0.91 0,1.37c0,0 0,0 0.46,0c0,0.46 0.46,0.46 1.37,0.46c0,0 -0.46,0 -0.46,-0.46c0,0 0.46,-0.46 0.46,-0.46c0.46,-0.91 -0.46,-0.91 -0.46,-1.37c0,-0.46 0.91,0 0.91,-1.37c0,0 0,-0.46 -0.46,-0.46c0,0 0,0 0,0l0,0c0.46,0 0.46,0 0.91,-0.46c-0.91,0 -0.46,-0.46 -0.46,-0.91c0,0 0,0 0,0c0.46,0 0.46,-0.46 0.46,-1.37c-0.46,0.46 -1.37,0.91 -1.37,0c0,0 0,-0.46 -0.91,-0.46c0.91,-0.46 0,-1.37 -2.29,-1.83c-0.46,0.46 -0.46,0.46 0,0" id="svg_48"/>
   <path fill="#FFFFFF" class="st1" d="m281.17,310.67c0,0 0,-0.46 0,0c0,0 0,0 0,0m-4.12,-9.15c0,-0.46 0.46,-0.46 0.46,-0.46c0.46,0 0.46,0 0.46,-0.46c0,-0.46 0,-0.46 -0.46,-0.91c0.46,0 0.46,-0.46 0.46,-0.46c-0.46,0 -0.46,0 -0.46,0c0,0 0,-0.46 0.46,-0.46c0,0 0.46,0 0.46,0l1.37,0.91c0,0 0.46,0 0.46,0.46c0,0 0,0.46 0,0.46c0,0 0,-0.46 -0.46,-0.46c-0.46,0 -0.46,0.46 0,0.46c-0.46,0 -0.91,-0.46 -0.91,0c0,0.46 0,0.46 0,0.91c0,0 0,0.46 0,0.91s-0.46,0.91 -1.37,0.46c-0.46,-0.46 -0.46,-0.91 -0.46,-1.37m1.83,-4.12c-0.46,0.46 -0.91,0.91 -1.37,0.46c-0.46,-0.46 0,-0.46 -0.46,-1.37c0.91,0.46 1.83,0.91 1.83,0.91m1.37,0.46c0,0 1.37,0.46 1.83,0.91c-0.91,0 -0.46,0.46 -1.37,0.46c-0.46,0 -0.46,-0.46 -0.46,-1.37m-8.23,7.32c0,0 0,0 0,0c0,0 0,0 0,0m40.24,-2.74c0,-1.37 -1.83,-2.74 -6.86,-2.74c-5.03,0 -16.46,1.83 -16.46,-0.91c0,-1.37 2.29,-1.37 5.03,-0.91c0,0 0.46,0.46 0.91,0.46c6.4,1.83 14.18,-1.37 18.29,-0.46c-4.57,-3.66 -8.69,0 -13.72,-0.91c2.74,0 4.12,-0.91 4.12,-1.83c-2.29,1.37 -6.4,-0.91 -9.15,0.91c0,0 -0.46,0 -0.46,0.46c-3.66,0 -6.4,0 -6.4,2.29c0,5.03 13.72,2.29 17.83,2.29c4.12,0 5.03,0.46 5.03,1.37c0,1.37 -4.12,1.37 -6.86,1.37c-3.66,0 -15.09,-1.83 -21.49,-0.46c0.46,-0.91 1.83,-2.29 0.91,-3.2c0.46,-0.46 0.91,-0.91 0.91,-1.37c-0.46,-0.46 -0.91,-0.46 -1.37,-0.46c0,-0.46 0,-0.46 -0.46,-0.91c0,0 0,-0.91 -0.46,-0.91c-0.46,0 -0.91,-0.46 -1.37,-0.91c-0.91,-0.46 -1.37,-0.46 -1.37,-0.46c0,0 -0.91,0 -0.91,0c-0.46,0 -0.91,0 -0.91,0.46c-0.46,-0.46 -0.91,-0.46 -1.37,-0.46c-0.46,0.46 -0.46,0.91 0,1.83c-0.46,0 -1.37,1.83 -1.83,1.37c0,0.46 0.46,0.46 0.46,0.46c-0.46,0.91 -0.91,1.83 -1.37,1.83c0.46,0.46 0.46,0.91 0.91,0.91c0,0.46 0,1.37 0,1.83l-0.91,-0.46c0,0 0,0 -0.46,0c0,0 -0.46,0 -0.46,0c0,0 0.46,0 0.46,0l-0.46,0c-0.46,-0.46 -1.37,-1.37 -2.29,-1.83c-0.91,-0.46 -0.91,-0.91 -0.91,-2.29c0,-0.91 0.46,-1.83 0.46,-2.74c0,0 0,-0.46 0,-0.91c0,-0.46 -0.91,-0.91 -1.37,-0.91c0,0 0.46,0.46 0.46,0.91c0,0 -0.46,0.46 -0.46,0.46c0,0.46 -0.46,0.46 0,0.91c0,0 0,0 0,0c0,0 0,0 0,0.46c0,0 0,0 0,0c0,-0.46 -0.46,-1.37 -0.91,-1.83c0,0 -0.46,0 -0.46,0c0,0 0,0 0,0c0,-0.46 -0.46,-1.37 -1.37,-0.46c0,0 0.46,0 0.46,0.46c0,0 0,0.46 0,0.46c0,0.46 0.46,0.91 0.91,0.91c0,0 0,0 0,0c0,0 0,0 0,0.46c0,0 0,0 0,0c-0.91,-0.46 -1.83,0 -1.83,0.46c0,0 0,0.46 0,0.46c-0.46,0.46 -0.46,0.91 0,1.37c0,0 0,-0.46 0.46,-0.91c0,0 0,0 0,0c0,0 0.46,0.46 0.46,0.46c0,0 0.46,0 0.46,0c0,0 0,0 0.46,0c0,0 0,0 0.46,0c0,0 0,0 0,0c-0.91,0.91 -0.91,1.37 0.46,1.83c0,0 0,0 0,0c0,1.37 -2.29,1.37 -1.83,-0.46c-0.91,1.83 0.46,2.74 2.29,2.29c0,0 0,0 0,0c0,0.46 0,0.46 0.46,0.46c0,0 0,-0.46 0.46,-0.46c0,0 0,0 0,0c0,0.46 0,0.91 0.46,0.91c0,-0.46 0,-0.46 0,-0.46c0.46,0 0.91,0.91 1.83,1.83c0.91,0.46 1.83,1.37 2.29,0.91c0,0.91 0.91,2.29 0.46,2.29c-0.46,0 -2.74,0 -3.66,0c-0.91,0.46 -3.2,1.37 -4.12,0.46c-0.46,-0.46 0,-0.46 -0.46,-1.37c0,-0.46 -0.46,-0.46 -0.91,-0.46c0,0 -0.46,0 -0.46,0c-0.46,-0.46 -1.37,-0.46 -1.83,0c0.46,0 0.46,0 0.91,0.46c0,0 0,0.46 -0.46,0.46c0,0.46 0,0.91 1.37,1.37c0,0 0,0 0,0c0,0 -0.46,0 -0.91,0c-0.46,-0.46 -0.46,-0.91 -1.37,-0.91c0,0 -0.46,0 -0.46,0.46c0,0 0,0 0,0c-0.46,0 -1.83,0.91 -1.37,1.37c0,0 0.46,-0.46 0.91,-0.46c0,0 0,0.46 0,0.46c0,0.91 0.46,1.37 1.83,0.46c0,0 0,0 0,0c-0.46,0.46 -1.37,1.37 -0.46,1.83c0,0 0,0 0.46,0.46c0,0 0,0 0,0c0,0.91 0.91,1.37 1.37,1.37c0,-0.46 -0.46,-0.46 -0.46,-1.37c0,0 0.46,0 0.46,0c0.91,-0.46 0.46,-1.37 0.91,-1.37c0,0 0,0 0,0c0,0.46 0,1.37 0.91,0.91c0.91,0 1.37,-0.91 1.37,-1.37c0,0 0,0 0,0c0.46,0 0.46,0.46 0.46,0.91c0,0 0.46,-0.46 0.46,-0.46c0,0.46 0,0.91 -0.46,1.37c0.46,0 1.37,-0.46 1.37,-1.37c0,0 0.46,0.46 0.46,0.46c0,0 0,0 0,0c0.46,0 0.91,0 1.83,0c0,0 0,0 0,0c0,0.46 0,0.91 0,0.91c0,0 0.46,-0.46 0.46,-0.46c0.46,0 0,0.91 0.46,1.37c0,-2.29 1.37,-1.37 2.74,-2.29c0,0 0,0 0,0c0,0.46 -0.46,0.46 -0.46,0.91c1.37,0.46 4.12,-1.83 4.57,-3.2c0.46,0 1.37,0 1.37,0c4.57,0.46 1.37,-4.12 8.69,-2.74c0.46,0 1.37,-0.46 1.83,-0.91c-0.46,0.91 -0.46,2.74 0.46,3.2c0.46,0 1.37,0.46 1.83,0.91c0,0 0,0 0,0c-0.46,0 -1.37,0 -1.37,0.46c-1.37,0.91 -1.37,-2.29 -3.2,-1.83c0,0 -0.46,0 -0.46,0.46c-0.46,0 -1.37,0.91 -1.37,1.37c0,0 0.46,-0.46 0.91,-0.46c0,0 0,0.46 0,0.46c0,0 0,0.46 0.46,0.46c0.46,0 0.46,0 0.46,0c0,0 0,0 0,0c0,0.46 -1.83,-0.46 -1.83,1.37c0,0 0,0.46 0.46,0.46c0,0.46 0.46,0.91 1.37,0.91c0,0 -0.46,-0.46 -0.46,-0.46c0,0 0.46,0 0.46,0c0,0 0,0 0,-0.46c0,0 0,0 0,0c0,0 0,0 0,0c0,0 0,0 0,0.46c0,0 0,0.46 0,0.46c0,0.46 0.91,1.37 1.83,0.46c-0.46,0 -0.91,0 -0.91,-0.46c0,0 0.46,0 0.46,0c0,0 0,-0.46 0,-0.46c0,0 0,0 0,0c0,0 0.46,0 0.46,0c0,0 0.46,0 0.46,0c0,0.46 0.46,0.91 1.37,0.46c0.91,-0.46 0,-1.37 0.91,-1.37c0,0 0.46,0 0.46,0c0.91,0 2.29,0 2.29,0c0.46,-0.46 0,-1.83 -0.91,-2.29c-0.46,-0.46 0,-0.91 -0.46,-1.83c0.91,0.46 1.83,0.91 3.2,0.91c2.29,0 2.74,-0.46 4.12,-0.91c1.37,-0.91 2.29,-0.46 2.74,-0.46c0.46,0 0.46,0 0.46,0.46c-0.46,1.37 0,1.37 0,1.83c0,0.46 -1.37,0 -1.83,0c-0.46,0 -0.91,0 -0.91,0.46c-0.46,0 -1.37,0.46 -1.37,1.37c0,0 0.46,-0.46 0.91,-0.46c0,0 0,0 0,0.46c0,0.91 0.91,0.91 1.37,0.46c0,0 0.46,0 0,0c-0.46,0.46 -1.37,0.91 -0.46,1.37c0,0 0.46,0 0.46,0.46c0,0.46 0.46,0.91 0.91,0.91c0,-0.46 0,-0.46 0,-0.91c0,0 0.46,0 0.46,0c0.46,0 0.46,-0.91 0.91,-1.37c0,0 0,0 0,0c0,0.46 -0.46,1.37 0,1.37c0,0 0.46,0 0.46,0c0,0.46 0.91,0.91 1.37,0.46c0,0 -0.46,-0.46 -0.46,-0.46c0,0 0.46,-0.46 0.46,-0.46c0.46,-1.37 -0.91,-1.37 -0.91,-1.83c0,-0.46 1.37,0 1.37,-1.37c0,-0.46 0,-0.46 -0.46,-0.91c0,0 0,0 0,0l0,0c0.46,0 0.91,0 0.91,-0.46c-0.91,0 -0.46,-0.91 -0.91,-1.37c0,0 0,0 0,0c0.46,0 0.46,-0.46 0.46,-1.37c-0.46,0.46 -1.37,0.91 -1.37,0c0,0 0,-0.46 -0.91,-0.46c-1.37,0 -2.74,0 -5.49,-0.46c6.86,0.46 11.89,-0.46 11.89,-2.29" id="svg_49"/>
   <path fill="#FFFFFF" class="st1" d="m271.11,323.93c0,-0.46 0.46,-0.46 0.46,-0.46c0.46,0 0.46,0 0.46,-0.46c0,-0.46 0,-0.46 -0.46,-0.91c0.46,0 0.46,-0.46 0.46,-0.46c0,0 -0.46,0 -0.46,0c0,0 0,-0.46 0.46,-0.46c0,0 0.46,0 0.46,0l1.37,0.91c0,0 0.46,0 0.46,0.46c0,0 0,0.46 0,0.46c0,0 0,-0.46 -0.46,-0.46c0,0 0,0 0,0.46c-0.46,0 -0.91,-0.46 -0.91,0c0,0.46 0,0.46 0,0.91c0,0 0,0.46 0,0.91c0,0.46 -0.46,0.91 -0.91,0.46c-0.91,-0.46 -0.91,-0.91 -0.91,-1.37m1.83,-3.66c-0.46,0.46 -0.91,0.91 -1.37,0.46c-0.46,-0.46 0,-0.46 -0.46,-1.37c0.91,0.46 1.83,0.91 1.83,0.91m1.37,0.46c0,0 1.37,0.46 1.83,0.91c-0.91,0 -0.46,0.46 -1.37,0.46c-0.46,0 -0.46,-0.91 -0.46,-1.37m35.67,4.12c0,-1.37 -1.83,-2.29 -6.4,-2.29c-5.03,0 -19.66,1.83 -19.66,-0.91c0,-1.83 5.03,-0.91 8.69,-0.91c0,0.46 0.46,0.46 0.91,0.91c6.4,1.83 12.8,-2.29 17.38,-0.91c-3.66,-3.2 -8.23,0.46 -12.8,-0.46c2.74,0 5.49,-0.46 5.94,-1.37c-2.29,1.37 -8.23,-0.91 -10.97,0.46c0,0 -0.46,0 -0.46,0.46c-4.57,0 -10.06,-0.46 -10.06,2.29c0,5.03 16.92,1.83 21.03,1.83c4.12,0 5.03,0.46 5.03,1.37c0,1.37 -4.12,1.37 -6.4,1.37c-3.66,0 -19.66,-1.83 -26.06,0c0.46,-0.91 1.83,-2.74 1.37,-3.66c0.46,-0.46 0.91,-0.91 0.91,-1.37c-0.46,-0.46 -0.91,-0.46 -1.37,-0.46c0,-0.46 0,-0.46 -0.46,-0.91c0,0 0,-0.91 -0.46,-0.91c-0.46,0 -0.91,-0.46 -1.37,-0.91c-0.91,-0.46 -1.37,-0.46 -1.37,-0.46c0,0 -0.91,0 -0.91,0c-0.46,0 -0.91,0 -0.91,0.46c-0.46,-0.46 -0.46,-0.46 -0.91,-0.46c-0.46,0.46 -0.46,0.91 0,1.83c-0.46,0 -1.37,1.37 -1.83,1.37c0,0.46 0.46,0.46 0.46,0.46c-0.46,0.91 -0.46,1.83 -1.37,1.83c0,0.46 0.46,0.46 0.46,0.46c0,0.46 0,0.91 0,1.37l-0.46,0c-0.46,0 -0.46,0 -0.91,0c-0.46,0 -0.46,0 -0.91,0c-0.91,0 -1.37,-1.37 -2.74,-1.83c-0.91,-0.46 -0.91,-0.91 -0.91,-1.83c0,-0.91 0.46,-1.83 0.46,-2.29c0,0 0,-0.46 -0.46,-0.91c0,-0.46 -0.91,-0.91 -1.37,-0.91c0,0 0.46,0.46 0.46,0.91c0,0 -0.46,0.46 -0.46,0.46c0,0 -0.46,0.46 0,0.91c0,0 0,0 0,0c0,0 0,0 0,0.46c0,0 0,0 0,0c0,-0.46 -0.46,-1.37 -0.91,-1.37c0,0 -0.46,0 -0.46,0c0,0 0,0 0,0c0,-0.46 -0.91,-0.91 -1.37,-0.46c0,0 0.46,0 0.46,0.46c0,0 0,0.46 0,0.46c0,0.46 0.46,0.91 0.91,0.91c0,0 0,0 0,0c0,0 0,0 0,0.46c0,0 0,0 0,0c-0.91,-0.46 -1.37,0 -1.37,0.46c0,0 0,0.46 0,0.46c-0.46,0.46 -0.46,0.91 0,1.37c0,0 0,-0.46 0.46,-0.46c0,0 0,0 0,0c0,0 0.46,0.46 0.46,0.46c0,0 0.46,0 0.46,0c0,0 0,0 0.46,0c0,0 0,0 0.46,0c0,0 0,0 0,0c-0.91,0.91 -0.46,1.37 0.46,1.37c0,0 0,0 0,0c0,1.37 -1.83,0.91 -1.83,-0.46c-0.91,1.37 0.91,2.74 2.29,1.83c0,0 0,0 0,0c0,0.46 0,0.46 0.46,0.46c0,0 0,-0.46 0.46,-0.46c0,0 0,0 0,0c0,0.46 0,0.91 0.46,0.91c0,-0.46 0,-0.46 0,-0.46c0.46,0 1.37,1.83 3.2,2.74c0.46,0 0.91,0 0.91,-0.46c0,0 0,0.46 0.46,0.46c0,0.91 0.46,1.83 0.46,1.83c-0.46,0 -3.2,0 -4.12,0c-0.91,0.46 -3.2,1.37 -3.66,0.46c0,-0.46 0,-0.46 -0.46,-0.91c0,-0.46 -0.46,-0.46 -0.91,-0.46c0,0 -0.46,0 -0.46,0c-0.46,-0.46 -1.37,-0.46 -1.37,0c0.46,0 0.46,0 0.91,0.46c0,0 0,0.46 -0.46,0.46c0,0.46 0,0.91 1.37,1.37c0,0 0,0 0,0c0,0 -0.46,0 -0.91,0c-0.46,-0.46 -0.46,-0.91 -1.37,-0.46c0,0 -0.46,0 -0.46,0c0,0 0,0 0,0c-0.46,0 -1.37,0.91 -1.37,1.37c0,0 0.46,-0.46 0.91,-0.46c0,0 0,0.46 0,0.46c0,0.91 0.46,1.37 1.83,0.46c0,0 0,0 0,0c-0.46,0.46 -1.37,1.37 -0.46,1.83c0,0 0,0 0.46,0.46c0,0 0,0 0,0c0,0.91 0.91,1.37 1.37,1.37c0,0 -0.46,-0.46 -0.46,-1.37c0,0 0.46,0 0.46,0c0.91,-0.46 0.46,-0.91 0.91,-1.37c0,0 0,0 0,0c0,0.46 0,1.37 0.91,0.91c0.91,0 1.37,-0.91 0.91,-1.37c0,0 0,0 0,0c0.46,0 0.46,0.46 0.46,0.91c0,0 0.46,-0.46 0.46,-0.46c0,0.46 0,0.91 -0.46,1.37c0.46,0 1.37,-0.46 1.37,-1.37c0,0 0.46,0.46 0.46,0.46c0,0 0,0 0,0c0.46,0 0.91,0 1.83,0c0,0 0,0 0,0c0,0.46 0,0.91 0,0.91c0,0 0,-0.46 0.46,-0.46c0,0 0,0.91 0.46,1.37c0,-2.29 2.74,-0.91 4.12,-1.83c0,0 0,0 0,0c0,0.46 -0.46,0.46 -0.46,0.91c0.46,0 1.37,-0.46 1.83,-0.91c0,0 0,0 0,0l2.29,-0.91c0,-0.46 0,-0.46 0,-0.46c0.46,0 0.46,0 0.91,0c0,0 0,0 0,0c1.37,0 1.37,-0.91 1.83,-0.91c7.77,0.91 3.2,-3.2 12.8,-2.29c0.46,0 0.46,0 0.91,-0.46c-0.46,0.91 -0.46,2.29 0.46,2.74c0.46,0 1.37,0.46 1.83,0.91c0,0 0,0 0,0c-0.46,0 -1.37,0 -1.37,0.46c-1.37,0.91 -1.37,-2.29 -3.2,-1.37c0,0 -0.46,0 -0.46,0.46c-0.46,0 -1.37,0.91 -1.37,1.37c0,0 0.46,-0.46 0.91,-0.46c0,0 0,0.46 0,0.46c0,0.46 0,0.46 0.46,0.46c0.46,0 0.46,0 0.46,0c0,0 0,0 0,0c0,0.46 -1.83,-0.46 -1.37,1.37c0,0 0,0.46 0.46,0.46c0,0.46 0.46,0.91 1.37,0.91c0,0 -0.46,-0.46 -0.46,-0.46c0,0 0.46,0 0.46,0c0,0 0,0 0,0c0,0 0,0 0,0c0,0 0,0 0,0c0,0 0,0 0,0.46c0,0 0,0.46 0,0.46c0,0.46 0.91,1.37 1.83,0.46c0,0 -0.91,0 -0.91,-0.46c0,0 0.46,0 0.46,0c0,0 0,-0.46 0,-0.46c0,0 0,0 0,0c0,0 0.46,0 0.46,0c0,0 0.46,0 0.46,0c0,0.46 0.46,0.91 1.37,0.46c0.91,-0.46 0,-1.37 0.91,-1.37c0,0 0.46,0 0.46,0c0.91,0 1.83,0 2.29,0c0,-0.46 0,-1.83 -0.91,-2.29c-0.46,-0.46 0,-0.91 -0.46,-1.83c0.91,0.46 1.83,0.91 3.2,0.91c2.29,0 2.74,-0.46 3.66,-0.91c0.91,-0.46 2.29,-0.46 2.74,-0.46c0.46,0 0.46,0 0.46,0.46c-0.46,1.37 0,1.37 0,1.83c0,0.46 -1.37,0 -1.83,0c-0.46,0 -0.91,0.46 -0.91,0.46c-0.46,0 -1.37,0.46 -1.37,1.37c0,0 0.46,-0.46 0.91,-0.46c0,0 0,0 0,0c0,0.91 0.91,0.91 1.37,0.46c0,0 0.46,0 0,0c-0.46,0.46 -1.37,0.91 -0.46,1.37c0,0 0,0 0.46,0c0,0.46 0.46,0.91 0.91,0.91c0,-0.46 0,-0.46 0,-0.91c0,0 0.46,0 0.46,0c0.46,0 0.46,-0.91 0.91,-1.37c0,0 0,0 0,0c0,0.46 -0.46,1.37 0,1.37c0,0 0,0 0.46,0c0,0.46 0.91,0.91 1.37,0.46c0,0 -0.46,0 -0.46,-0.46c0,0 0.46,-0.46 0.46,-0.46c0.46,-1.37 -0.46,-1.37 -0.46,-1.83c0,-0.46 1.37,0 1.37,-1.37c0,0 0,-0.46 -0.46,-0.91c0,0 0,0 0,0l0,0c0.46,0 0.46,0 0.91,-0.46c-0.91,0 -0.46,-0.46 -0.91,-1.37c0,0 0,0 0,0c0.46,0 0.46,-0.46 0.46,-1.37c-0.46,0.46 -1.37,0.91 -1.37,0c0,0 0,-0.46 -0.91,-0.46c-1.37,0 -2.29,0 -5.49,-0.46c4.57,-1.83 9.6,-2.29 9.6,-4.12" id="svg_50"/>
   <path fill="#FFFFFF" class="st1" d="m347.48,363.71l0,0c0,0 0,0 0,0m-7.32,-10.97c0,0 0,0 0,0c0,0 0,0 0,0m-0.46,1.37l0,0l0,0zm1.37,2.29c0,-0.46 0.46,-0.46 0.46,-0.46c0.46,0 0.46,0 0.46,-0.46c0,-0.46 0,-0.46 -0.46,-0.91c0.46,0 0.46,-0.46 0.46,-0.46c0,0 -0.46,0 -0.46,0c0,0 0,-0.46 0.46,-0.46c0,0 0.46,0 0.46,0l1.37,0.91c0,0 0.46,0 0.46,0.46c0,0 0,0.46 0,0.46c0,0 0,-0.46 -0.46,-0.46c-0.46,0 -0.46,0 0,0.46c-0.46,0 -0.91,-0.46 -0.91,0c0,0.46 0,0.46 0,0.91c0,0 0,0.46 0,0.91c0,0.46 -0.46,0.91 -0.91,0.46c-1.37,-0.46 -1.37,-0.91 -0.91,-1.37m1.83,-3.66c-0.46,0.46 -0.91,0.91 -1.37,0.46c-0.46,-0.46 0,-0.46 -0.46,-1.37c0.46,0 1.37,0.91 1.83,0.91m0.91,0.46c0,0 1.37,0.46 1.83,0.91c-0.91,0 -0.46,0.46 -1.37,0.46c-0.46,0 -0.46,-0.91 -0.46,-1.37m35.21,9.15c0,0 0,-0.46 0,0c0.46,-0.46 0.46,-0.91 0.46,-1.37c-0.46,0.46 -1.37,0.91 -1.37,0c0,0 0,-0.46 -0.91,-0.46c-1.37,0 -2.74,0 -5.49,-0.46c0,0 -0.46,0 0,0c2.74,0 7.77,-0.46 7.77,-2.29c0,-1.37 -1.83,-2.29 -6.4,-2.29c-5.03,0 -19.66,1.83 -19.66,-0.91c0,-1.83 5.03,-0.91 8.69,-0.91c0,0.46 0.46,0.46 0.91,0.46c6.4,1.83 13.26,-2.74 17.38,-1.83c-5.03,-1.83 -7.77,1.37 -12.8,0.46c2.74,0 5.49,-0.46 5.94,-1.37c-2.29,1.37 -8.23,-0.91 -10.97,0.46c0,0 -0.46,0 -0.46,0.46c-4.57,0 -10.06,-0.46 -10.06,2.29c0,5.03 16.92,1.83 21.03,1.83c4.12,0 5.03,0.46 5.03,1.37c0,1.37 -4.12,1.37 -6.4,1.37c-3.66,0 -19.66,-2.29 -26.06,0c0.46,-0.91 1.83,-2.74 1.37,-3.66c0.46,-0.46 0.91,-0.91 0.91,-1.37c-0.46,-0.46 -0.91,-0.46 -1.37,-0.46c0,-0.46 0,-0.46 -0.46,-0.91c0,0 0,-0.91 -0.46,-0.91c0,0 -0.91,-0.46 -1.37,-0.91c-0.46,-0.46 -1.37,-0.46 -1.37,-0.46c0,0 -0.91,0 -0.91,0c-0.46,0 -0.91,0 -0.91,0.46c-0.46,-0.46 -0.91,-0.46 -1.37,-0.46c-0.46,0.46 -0.46,0.91 0,1.83c-0.46,0 -1.37,1.37 -1.83,1.37c0,0.46 0.46,0.46 0.46,0.46c-0.46,0.91 -0.46,1.83 -1.37,1.83c0.46,0.46 0.46,0.91 0.91,0.91c0,0.46 0,0.91 0,1.37l-0.91,-0.46c-0.46,0 -0.91,0 -0.91,0c0,0 -0.46,0 -0.91,0c-0.91,0 -1.37,-1.37 -2.74,-2.29c-0.91,-0.46 -0.91,-0.91 -0.91,-1.83c0,-0.91 0.46,-1.37 0.46,-2.29c0,0 0,-0.46 -0.46,-0.91c0,-0.46 -0.91,-0.91 -1.37,-0.91c0,0 0.46,0.46 0.46,0.91c0,0 -0.46,0.46 -0.46,0.46c0,0 0,0.46 0,0.91c0,0 0,0 0,0c0,0 0,0 0,0.46c0,0 0,0 0,0c0,-0.46 -0.46,-1.37 -0.91,-1.37c0,0 -0.46,0 -0.46,0c0,0 0,0 0,0c0,-0.46 -0.46,-0.91 -1.37,-0.46c0,0 0.46,0 0.46,0.46c0,0 0,0.46 0,0.46c0,0.46 0.46,0.91 0.91,0.91c0,0 0,0 0,0c0,0 0,0 0,0.46c0,0 0,0 0,0c-0.91,-0.46 -1.37,0 -1.83,0.46c0,0 0,0.46 0,0.46c-0.46,0.46 -0.46,0.91 0.46,1.37c0,0 0,-0.46 0.46,-0.91c0,0 0,0 0,0c0,0 0.46,0 0.46,0c0,0 0.46,0 0.46,0c0,0 0,0 0.46,0c0,0 0,0 0.46,0c0,0 0,0 0,0c-0.91,0.91 -0.46,1.37 0.46,1.83c0,0 0,0 0,0c0,1.37 -1.83,0.91 -1.83,-0.46c-0.91,1.37 0.91,2.74 2.29,1.83c0,0 0,0 0,0c0,0.46 0,0.46 0.46,0.46c0,0 0,-0.46 0.46,-0.46c0,0 0,0 0,0c0,0.46 0,0.91 0.46,0.91c0,-0.46 0,-0.46 0,-0.46c0.46,0 1.37,1.83 3.2,3.2c0,0 0.91,-0.46 1.37,-0.91c0,0.46 0.46,0.91 0.46,0.91l0.46,0c0,0.91 0.91,1.83 0.91,1.83c-0.46,0 -2.29,-0.46 -2.74,0c-0.91,0.46 -3.2,1.37 -3.66,0.46c0,-0.46 0,-0.46 -0.46,-0.91c0,-0.46 -0.46,-0.46 -0.91,-0.46c0,0 -0.46,0 -0.46,0c-0.46,-0.46 -1.37,-0.46 -1.37,0c0.46,0 0.46,0 0.91,0.46c0,0 0,0.46 0,0.46c0,0.46 0,0.91 1.37,1.37c0,0 0,0 0,0c0,0 -0.46,0 -0.91,0c-0.46,-0.46 -0.46,-0.91 -1.37,-0.46c0,0 0,0 -0.46,0c0,0 0,0 0,0c-0.46,0 -1.37,0.91 -1.37,1.37c0,0 0.46,-0.46 0.91,-0.46c0,0 0,0.46 0,0.46c0,0.91 0.46,1.37 1.83,0.46c0,0 0,0 0,0c-0.46,0.46 -1.37,1.37 -0.46,1.83c0,0 0,0 0.46,0.46c0,0 0,0 0,0c0,0.91 0.91,1.37 1.37,1.37c0,0 -0.46,-0.46 -0.46,-1.37c0,0 0.46,0 0.46,0c0.91,-0.46 0.46,-1.37 0.91,-1.37c0,0 0,0 0,0c0,0.46 0,1.37 0.91,0.91c0.91,0 1.37,-0.91 0.91,-1.37c0,0 0,0 0,0c0.46,0 0.46,0.46 0.46,0.91c0,0 0.46,-0.46 0.46,-0.46c0,0.46 0,0.91 -0.46,1.37c0.46,0 1.37,-0.46 1.37,-1.37c0,0 0.46,0.46 0.46,0.46c0,0 0,0 0,0c0.46,0 0.91,0 1.83,0c0,0 0,0 0,0c0,0.46 0,0.91 0,0.91c0,0 0,-0.46 0.46,-0.46c0.46,0 0,0.91 0.46,1.37c0,-2.29 1.37,-1.37 2.74,-2.29c0,0 0,0 0,0c0,0.46 -0.46,0.46 -0.46,0.91c0.46,0.46 2.29,-0.91 2.29,-1.83c0,0 0.91,-0.46 1.37,-0.46c1.37,0 1.37,-0.91 1.83,-0.91c7.77,0.91 3.2,-3.2 12.8,-2.29c0.46,0 0.46,-0.46 0.91,-0.91c-0.46,0.91 -0.46,2.74 0.46,2.74c0.46,0 1.37,0.46 1.83,0.46c0,0 0,0 0,0c-0.46,0 -0.91,0 -1.37,0.46c-1.37,0.91 -1.37,-2.29 -3.2,-1.83c0,0 -0.46,0.46 -0.46,0.46c-0.46,0 -1.37,0.91 -1.37,1.37c0,0 0.46,-0.46 0.91,-0.46l0,0.46c0,0.46 0,0.46 0.46,0.46c0.46,0 0.46,0 0.46,0c0,0 0,0 0,0c0,0.46 -1.83,-0.46 -1.37,1.37c0,0 0,0.46 0.46,0.46c0,0.46 0.46,0.91 1.37,0.46c0,0 -0.46,-0.46 -0.46,-0.46c0,0 0.46,0 0.46,0c0,0 0,0 0,-0.46c0,0 0,0 0,0c0,0 0,0 0,0c0,0 0,0 0,0.46c0,0 0,0.46 0,0.46c0,0.46 0.91,1.37 1.83,0.46c-0.46,0 -0.91,0 -0.91,-0.46c0,0 0.46,0 0.46,0c0,0 0,-0.46 0,-0.46c0,0 0,0 0,0c0,0 0.46,0 0.46,0c0,0 0,0 0.46,0c0,0.46 0.46,0.46 1.37,0.46c0.91,-0.46 0,-1.37 0.91,-1.37c0,0 0.46,0 0.46,0c0.91,0 1.83,0 2.29,0c0,-0.46 0,-1.83 -0.91,-2.29c-0.46,-0.46 0,-0.91 -0.46,-1.83c0.91,0.46 1.83,0.91 3.2,0.91c2.29,0 2.74,-0.46 4.12,-0.91c1.37,-0.91 2.29,-0.46 2.74,-0.46c0.46,0 0.46,0 0.46,0.46c-0.46,1.37 0,1.37 -0.46,1.83c0,0.46 -1.37,0 -1.83,0c-0.46,0 -0.46,0.46 -0.46,0.46c-0.46,0 -1.37,0.46 -1.37,1.37c0,0 0.46,-0.46 0.91,-0.46l0,0.46c0,0.91 0.91,0.91 1.37,0.46c0,0 0.46,0 0,0c-0.46,0.46 -1.37,0.91 -0.46,1.37c0,0 0,0 0.46,0c0,0.46 0,0.91 0.46,0.91c0,-0.46 0,-0.46 0,-0.91l0.46,0c0.46,0 0.46,-0.91 0.91,-1.37c0,0 0,0 0,0c0,0.46 -0.46,1.37 0,1.37c0,0 0,0 0.46,0c0,0.46 0.46,0.91 1.37,0.46c0,0 -0.46,0 -0.46,-0.46c0,0 0.46,-0.46 0.46,-0.46c0.46,-1.37 -0.46,-1.37 -0.46,-1.83c0,-0.46 1.37,0 1.37,-1.37c0,0 0,-0.46 -0.46,-0.91c0,0 0,0 0,0l0,0c0.46,0 0.46,0 0.91,-0.46c0.46,0.91 0.91,0.46 0.91,0" id="svg_51"/>
   <path fill="#FFFFFF" class="st1" d="m343.82,376.06c-0.46,0 -0.91,-0.91 -0.46,-1.37c0,0 1.37,0.46 1.83,0.91c-0.91,0 -0.91,0.46 -1.37,0.46m-0.91,0.91c0,0 0,-0.46 -0.46,-0.46c-0.46,0 0,0 0,0.46c-0.46,0 -0.46,-0.46 -0.91,0c0,0.46 0,0.46 0,0.91c0,0 0,0.46 0,0.91c0,0.46 -0.46,0.91 -0.91,0.46c-0.46,-0.46 -0.46,-0.91 -0.46,-0.91c0,-0.46 0.46,-0.46 0.46,-0.46c0.46,0 0.46,0 0.46,-0.46c0,-0.46 0,-0.46 -0.46,-0.91c0.46,0 0.46,-0.46 0.46,-0.46c-0.46,0 -0.46,0 -0.46,0c0,0 0,-0.46 0.46,-0.46c0,0 0.46,0 0.46,0l1.37,0.46c0,0 0.46,0 0.46,0.46c-0.46,0 0,0.46 -0.46,0.46m-0.91,-2.74c-0.46,0.46 -0.91,0.91 -1.37,0.46c-0.46,-0.46 0,-0.46 -0.46,-1.37c0.91,0.46 1.83,0.91 1.83,0.91m15.09,0.46c0,0.46 0.46,0.46 0.91,0.91c5.94,1.83 12.8,-2.74 16.46,-1.83c-4.57,-1.83 -7.77,1.37 -12.35,0.46c2.74,0 5.49,-0.46 5.49,-1.37c-1.83,1.37 -7.77,-0.91 -10.06,0.46c0,0 -0.46,0 -0.46,0.46c-3.2,0 -5.94,0 -5.94,2.29c0,4.57 12.35,1.83 16.46,1.83c3.66,0 3.2,0.46 3.2,1.37c0,0.91 -4.57,1.37 -6.4,1.37c-3.2,0 -13.26,-1.83 -19.66,-0.46c0.46,-0.91 1.83,-2.29 0.91,-3.2c0.46,0 0.91,-0.46 0.91,-1.37c-0.46,-0.46 -0.91,-0.46 -0.91,-0.46c0,-0.46 0,-0.46 -0.46,-0.91c0,0 0,-0.46 -0.46,-0.91c0,0 -0.91,-0.46 -1.37,-0.91c-0.91,-0.46 -0.91,-0.46 -1.37,-0.46c0,0 -0.91,0 -0.91,0c-0.46,0 -0.91,0 -0.91,0.46c-0.46,-0.46 -0.46,-0.46 -0.91,-0.46c-0.46,0.46 -0.46,0.91 0,1.83c-0.46,0 -0.91,1.37 -1.83,1.37c0,0.46 0.46,0.46 0.46,0.46c-0.46,0.91 -0.46,1.83 -1.37,1.83c0,0.46 0.46,0.46 0.46,0.46c0,0.46 -0.46,1.37 -0.46,1.83l-0.46,0c0,0 0,0 -0.46,0c-0.91,0 -1.37,0 -2.29,-0.91c-0.91,-0.46 -0.91,-0.91 -0.91,-1.83c0,-0.91 0.46,-1.37 0.46,-2.29c0,0 0,-0.46 0,-0.91c0,-0.46 -0.91,-0.91 -1.37,-0.91c0,0 0.46,0.46 0.46,0.91c0,0 -0.46,0.46 -0.46,0.46c0,0.46 -0.46,0.46 0,0.91c0,0 0,0 0,0c0,0 0,0 0,0.46c0,0 0,0 0,0c0,-0.46 -0.46,-1.37 -0.91,-1.37c0,0 -0.46,0 -0.46,0c0,0 0,0 0,0c0,-0.46 -0.46,-0.91 -1.37,-0.46c0,0 0.46,0 0.46,0.46c0,0 0,0.46 0,0.46c0,0.46 0.46,0.91 0.91,0.91c0,0 0,0 0,0c0,0 0,0 0,0.46c0,0 0,0 0,0c-0.91,-0.46 -1.37,0 -1.37,0.46c0,0 0,0.46 0,0.46c-0.46,0.46 -0.46,0.91 0,1.37c0,0 0,-0.46 0,-0.46c0,0 0,0 0,0c0,0 0.46,0.46 0.46,0.46c0,0 0.46,0 0.46,0c0,0 0,0 0.46,0c0,0 0,0 0.46,0.46c0,0 0,0 0,0c-0.91,0.46 -0.46,1.37 0.46,1.37c0,0 0,0 0,0.46c0,1.37 -1.83,0.91 -1.83,-0.46c-0.91,1.37 0.91,2.74 1.83,1.83c0,0 0,0 0,0c0,0.46 0,0.46 0.46,0.46c0,0 0,-0.46 0.46,-0.46c0,0 0,0 0,0c0,0.46 0,0.91 0.46,0.91c0,-0.46 0,-0.46 0,-0.46c0.46,0 0,-0.46 1.83,0.46c0,0.46 0.46,0.46 0.46,0.46l1.37,0c0,0.91 0,2.29 0,2.29c-0.46,0 -1.83,0 -2.74,0c-0.91,0.46 -3.2,1.37 -3.66,0.46c0,-0.46 0,-0.46 -0.46,-0.91c0,-0.46 -0.46,-0.46 -0.91,-0.46l1.37,0c-0.46,-0.46 -0.91,-0.46 -1.37,0c0.46,0 0.46,0 0.91,0.46c0,0 0,0.46 0,0.46c0,0.46 0,0.91 1.37,1.37c0,0 0,0 0,0c0,0 -0.46,0 -0.91,0c-0.46,-0.46 -0.46,-0.91 -1.37,-0.46c0,0 -0.46,0 -0.46,0c0,0 0,0 0,0c-0.46,0 -1.37,0.91 -0.91,1.37c0,0 0.46,-0.46 0.91,-0.46c0,0 0,0.46 0,0.46c0,0.91 0.46,1.37 1.83,0.46c0,0 0,0 0,0c-0.46,0.46 -1.37,1.37 -0.46,1.83c0,0 0,0 0.46,0c0,0 0,0 0,0c0,0.91 0.91,1.37 1.37,1.37c0,0 -0.46,-0.46 -0.46,-1.37c0,0 0.46,0 0.46,0c0.46,-0.46 0.46,-0.91 0.91,-1.37c0,0 0,0 0,0c0,0.46 0,0.91 0.91,0.91c0.91,0 0.91,-0.91 0.91,-0.91c0,0 0,0 0,0c0.46,0 0.46,0.46 0.46,0.91c0,0 0.46,-0.46 0.46,-0.46c0,0.46 0,0.91 -0.46,1.37c0.46,0 0.91,-0.46 1.37,-1.37c0,0 0.46,0.46 0.46,0.46c0,0 0,0 0,0c0,0 0.91,0 1.37,0c0,0 0,0 0,0c0,0.46 0,0.46 0,0.91c0,0 0,-0.46 0.46,-0.46c0,0 0,0.91 0.46,1.37c0,-1.83 1.83,-1.37 3.2,-2.29c0,0 0,0 0,0c0,0.46 -0.46,0.46 -0.46,0.46c1.37,0.91 2.74,-0.91 3.2,-1.83c0,0 0.46,-0.46 0.46,-0.46c0,0 0,0.46 -0.46,0.46c1.37,0 1.37,-0.91 1.83,-0.91c4.12,0.46 0.91,-3.2 7.32,-2.29c0.46,0 1.37,-0.46 1.83,-0.91c-0.46,0.91 -0.46,2.74 0.46,2.74c0.46,0 1.37,0.46 1.37,0.46c0,0 0,0 0,0c-0.46,0 -0.91,0 -1.37,0.46c-1.37,0.91 -1.37,-2.29 -2.74,-1.37c0,0 -0.46,0 -0.46,0.46c-0.46,0 -1.37,0.91 -1.37,1.37c0,0 0.46,-0.46 0.91,-0.46c0,0 0,0.46 0,0.46c0,0 0,0.46 0.46,0.46c0.46,0 0.46,0 0.46,0c0,0 0,0 0,0c0,0.46 -1.83,-0.46 -1.37,1.37c0,0 0,0.46 0.46,0.46c0,0.46 0.46,0.91 0.91,0.46c0,0 -0.46,-0.46 -0.46,-0.46c0,0 0.46,0 0.46,0c0,0 0,0 0,0c0,0 0,0 0,0c0,0 0,0 0,0c0,0 0,0 0,0.46c0,0 0,0.46 0,0.46c0,0.46 0.91,0.91 1.37,0.46c-0.46,0 -0.91,0 -0.91,-0.46c0,0 0.46,0 0.46,0c0,0 0,-0.46 0,-0.46c0,0 0,0 0,0c0,0 0.46,0 0.46,0c0,0 0.46,0 0.46,0c0,0.46 0.46,0.46 0.91,0.46c0.91,-0.46 0,-1.37 0.91,-1.37c0,0 0.46,0 0.46,0c0.91,0 1.83,0 2.29,0c0,-0.46 0,-1.83 -0.91,-2.29c-0.46,0 0,-0.91 -0.46,-1.37c0.91,0.46 1.83,0.91 2.74,0.91c2.29,0 3.2,-0.46 4.12,-0.91c1.37,-0.46 2.29,-0.46 2.74,-0.46c0.46,0 0.46,0 0.46,0.46c-0.46,0.91 0,1.37 -0.46,1.83c-0.46,0.46 -0.91,0 -1.83,0c-0.46,0 -0.91,0.46 -0.91,0.46c-0.46,0 -1.37,0.46 -1.37,1.37c0,0 0.46,-0.46 0.91,-0.46c0,0 0,0 0,0.46c0,0.91 0.46,0.91 1.37,0.46c0,0 0.46,0 0,0c-0.46,0.46 -1.37,0.91 -0.91,1.37c0,0 0,0 0.46,0c0,0.46 0,0.91 0.46,0.91c0,-0.46 0,-0.46 0.46,-0.91c0,0 0.46,0 0.46,0c0.46,0 0.46,-0.91 0.91,-1.37c0,0 0,0 0,0c-0.46,0.46 -0.46,1.37 0,1.37c0,0 0,0 0.46,0c0,0.46 0.46,0.91 1.37,0.46c0,0 -0.46,-0.46 -0.46,-0.46c0,0 0.46,-0.46 0.46,-0.46c0.46,-1.37 -0.46,-1.37 -0.46,-1.83c0,-0.46 1.37,0 1.37,-1.37c0,0 0,-0.46 -0.46,-0.91c0,0 0,0 0,0l0,0c0.46,0 0.46,0 0.91,-0.46c-0.91,0 -0.46,-0.46 -0.46,-0.91c0,0 0,0 0,0c0.46,0 0.46,-0.46 0.46,-1.37c-0.46,0.46 -1.37,0.91 -1.37,0c0,0 0,-0.46 -0.91,-0.46c-1.37,0 -3.66,0 -5.94,-0.46c0,0 -0.46,0 0,0c2.74,0 8.23,-0.46 8.23,-2.29c0,-1.37 -0.46,-2.29 -5.03,-2.29c-4.57,0 -15.09,1.83 -15.09,-0.91c1.83,-3.66 4.12,-3.66 6.4,-3.2" id="svg_52"/>
   <path fill="#FFFFFF" class="st1" d="m338.33,399.38c0,-0.46 0.46,-0.46 0.46,-0.46c0.46,0 0.46,0 0.46,-0.46c0,-0.46 0,-0.46 -0.46,-0.46c0.46,0 0.46,-0.46 0.46,-0.46c0,0 -0.46,0 -0.46,0c0,0 0,-0.46 0.46,-0.46c0,0 0.46,0 0.46,0l1.37,0.46c0,0 0.46,0 0.46,0.46c0,0 0,0.46 0,0.46c0,0 0,-0.46 -0.46,-0.46c0,0 0,0 0,0.46c-0.46,0 -0.46,-0.46 -0.91,0c0,0.46 0,0.46 0,0.91c0,0 0,0.46 0,0.91c0,0.46 -0.46,0.91 -0.91,0.46c-0.91,-0.46 -0.91,-0.91 -0.91,-1.37m1.83,-3.66c-0.46,0.46 -0.91,0.91 -0.91,0.46c-0.46,-0.46 0,-0.46 -0.46,-1.37c0,0.46 0.91,0.91 1.37,0.91m0.91,0.91c0,0 1.37,0.46 1.83,0.46c-0.91,0 -0.46,0.46 -0.91,0.46c-0.91,0 -0.91,-0.46 -0.91,-0.91m10.97,-0.91c0,0.46 0.46,0.46 0.91,0.91c5.94,1.83 12.8,-2.74 16.46,-1.83c-4.57,-1.83 -7.77,1.37 -12.35,0.46c2.74,0 5.49,-0.46 5.49,-1.37c-1.83,1.37 -7.77,-0.91 -10.06,0.46c0,0 -0.46,0.46 -0.46,0.46c-1.83,0.46 -3.2,1.37 -3.2,2.74c0,4.12 15.09,0.91 15.09,2.29c0,0.91 -3.2,1.83 -6.86,1.83c-3.2,0 -8.23,-1.83 -15.09,-0.46l0,0c0.46,-0.91 1.83,-2.74 1.37,-3.66c0.46,0 0.91,-0.46 0.91,-0.91c-0.46,-0.46 -0.91,-0.46 -0.91,-0.46c0,-0.46 0,-0.46 -0.46,-0.91c0,0 0,-0.46 -0.46,-0.91c0,0 -0.46,-0.46 -1.37,-0.91c-0.46,-0.46 -0.91,-0.46 -1.37,-0.46c0,0 -0.91,0 -0.91,0c-0.46,0 -0.91,0 -0.91,0.46c-0.46,-0.46 -0.46,-0.46 -0.91,-0.46c-0.46,0.46 -0.46,0.91 0,1.37c-0.46,0 -0.91,1.37 -1.37,1.37c0,0.46 0.46,0.46 0.46,0.46c-0.46,0.91 -0.46,1.83 -0.91,1.83c0,0.46 0.46,0.46 0.46,0.46c-0.46,1.37 -0.46,2.74 -0.46,3.66c-0.91,-0.91 -2.29,-3.2 -3.2,-3.66c-0.91,-0.46 -0.91,-0.91 -0.91,-1.83c0,-0.91 0.46,-1.37 0.46,-2.29c0,0 0,-0.46 0,-0.91c0,-0.46 -0.91,-0.91 -1.37,-0.91c0,0 0.46,0.46 0.46,0.91c0,0 -0.46,0.46 -0.46,0.46c0,0 -0.46,0.46 0,0.91c0,0 0,0 0,0c0,0 0,0 0,0.46c0,0 0,0 0,0c0,-0.46 -0.46,-1.37 -0.91,-1.37c0,0 -0.46,0 -0.46,0c0,0 0,0 0,0c0,-0.46 -0.46,-0.91 -1.37,-0.46c0,0 0.46,0 0.46,0.46c0,0 0,0.46 0,0.46c0,0.46 0.46,0.91 0.91,0.91c0,0 0,0 0,0c0,0 0,0 0,0.46c0,0 0,0 0,0c-0.91,-0.46 -1.37,0 -1.37,0.46c0,0 0,0.46 0,0.46c-0.46,0.46 -0.46,0.91 0,1.37c0,0 0,-0.46 0,-0.46c0,0 0,0 0,0c0,0 0.46,0.46 0.46,0.46c0,0 0.46,0 0.46,0c0,0 0,0 0,0c0,0 0,0 0.46,0c0,0 0,0 0,0c-0.46,0.46 -0.46,1.37 0.46,1.37c0,0 0,0 0,0c0,1.37 -1.83,0.91 -1.83,-0.46c-0.91,1.37 0.91,2.74 1.83,1.83c0,0 0,0 0,0c0,0 0,0.46 0.46,0.46c0,0 0,-0.46 0.46,-0.46c0,0 0,0 0,0c0,0.46 0,0.91 0.46,0.91c0,-0.46 0,-0.46 0,-0.46c0,0 0,1.83 1.83,2.74c0.46,0.91 1.37,1.83 2.29,1.37c0.46,0.91 0.91,1.37 0.46,1.37c-0.46,0 -2.29,0 -2.74,0c-0.46,0.46 -1.37,0.46 -1.83,0.46l0,0c0,0 0,0 0,0c-0.46,0 -1.37,0 -1.37,-0.46c0,-0.46 0,-0.46 -0.46,-0.91c0,-0.46 -0.46,-0.46 -0.46,-0.46c0,0 -0.46,0 -0.46,0c-0.46,-0.46 -0.91,-0.46 -1.37,0c0.46,0 0.46,0 0.91,0.46c0,0 0,0.46 0,0.46c0,0.46 0,0.91 1.37,0.91c0,0 0,0 0,0c0,0 -0.46,0 -0.91,0c-0.46,-0.46 -0.46,-0.91 -1.37,-0.46c0,0 0,0 -0.46,0c0,0 0,0 0,0c-0.46,0 -1.37,0.46 -0.91,1.37c0,0 0.46,-0.46 0.46,-0.46c0,0 0,0.46 0,0.46c0,0.46 0.46,1.37 1.83,0.46c0,0 0,0 0,0c-0.46,0.46 -1.37,0.91 -0.46,1.37c0,0 0,0 0.46,0c0,0 0,0 0,0c0,0.91 0.91,1.37 0.91,1.37c0,0 -0.46,-0.46 -0.46,-0.91c0,0 0.46,0 0.46,0c0.46,-0.46 0.46,-0.91 0.46,-1.37c0,0 0,0 0,0c0,0.46 0,0.91 0.91,0.91c0.91,0 0.91,-0.91 0.91,-0.91c0,0 0,0 0,0c0.46,0 0.46,0.46 0.46,0.91c0,0 0.46,-0.46 0.46,-0.46c0,0.46 0,0.91 -0.46,1.37c0.46,0 0.91,-0.46 1.37,-1.37c0,0 0.46,0.46 0.46,0.46c0,0 0,0 0,0c0.46,0 0.91,0 1.37,0c0,0 0,0 0,0c0,0.46 0,0.46 0,0.91c0,0 0,-0.46 0.46,-0.46c0,0 0,0.91 0.46,1.37c0,-1.83 1.37,-1.37 2.29,-1.83c0,0 0,0 0,0c0,0 -0.46,0.46 -0.46,0.46c0.46,0 1.83,-0.46 1.83,-1.37c0,-0.46 0.91,-0.91 0.91,-3.2c0,0 0.46,0 0.46,0c1.83,0 2.29,-1.37 4.12,-1.37c-0.46,0.46 -0.46,1.37 -0.46,2.29c0,0.91 1.37,1.83 1.37,2.29c0,0 0,0 0,0c-0.46,0 -0.91,0 -1.37,0.46c-1.37,0.91 -1.37,-1.83 -2.74,-1.37c0,0 -0.46,0 -0.46,0.46c-0.46,0 -1.37,0.46 -1.37,1.37c0,0 0.46,-0.46 0.91,-0.46l0,0.46c0,0.46 0,0.46 0.46,0.46c0.46,0 0.46,0 0.46,0c0,0 0,0 0,0c0,0.46 -1.83,-0.46 -1.37,1.37c0,0 0,0.46 0,0.46c0,0.46 0.46,0.91 0.91,0.46c0,0 -0.46,-0.46 -0.46,-0.46c0,0 0.46,0 0.46,0c0,0 0,0 0,-0.46c0,0 0,0 0,0c0,0 0,0 0,0c0,0 0,0 0,0.46c0,0 0,0.46 0,0.46c0,0.46 0.46,0.91 1.37,0.46c0,0 -0.91,0 -0.91,-0.46c0,0 0.46,0 0.46,0c0,0 0,-0.46 0,-0.46c0,0 0,0 0,0c0,0 0.46,0 0.46,0c0,0 0,0 0.46,0c0,0.46 0.46,0.46 0.91,0.46c0.91,-0.46 0,-0.91 0.91,-1.37c0,0 0.46,0 0.46,0c0.91,0 1.37,0.46 1.37,0c0,-0.46 0,-1.83 -0.91,-2.29c-0.46,-0.46 0.46,-3.2 -1.37,-4.57c0.91,0.46 4.57,0.91 5.03,0c0.91,0.46 2.29,0.91 2.29,0.91c0,0 0,0.46 0,0.46c-0.91,0.46 -0.91,0.91 -1.37,0.91l0,0c-0.46,-0.46 -0.46,-0.91 -0.91,-0.91c-0.46,0 -0.46,0 -0.91,0c-0.46,0 -1.37,0 -1.37,0.46c0,0 0.46,0 0.91,0c0,0 0,0 0,0c0,0 0,0.46 0,0.46l0,0l0,0c0,0 0,0 0,0c0,0 0,0 0,0c-0.46,0 -1.37,0 -1.37,0.46c0,0 0,0 0,0.46c-0.46,0.46 -0.46,0.91 0,0.91c0,-0.46 0,-0.46 0.46,-0.46c0,0 0,0.46 0,0.46c0.46,0.46 0.91,-0.46 1.37,-0.46c0,0 0,0 0,0c-0.46,0 -0.91,0.46 -0.91,0.91c0,0 0,0 0,0.46c0,0.46 0,0.91 0.46,1.37c0,0 0,-0.46 0,-0.91c0,0 0.46,0 0.46,0c0.91,-0.46 0.46,-1.37 0.91,-1.37c0.46,-0.46 0.91,0.46 1.83,0c0,0 0.46,-0.46 0,-0.91c0,0 0,0 0,0l0,0c0,0 0.46,0.46 0.91,0.46c-0.46,-0.46 0,-0.91 0.46,-1.37c0,0 0,0 0,0c0.46,0 0.46,0 0.91,-0.46c-0.46,0 -1.83,-0.46 -0.91,-0.91c0.91,-0.46 1.37,-0.91 0.91,-1.37c-0.91,-0.91 -2.29,-1.37 -2.29,-2.29c0.46,0 1.37,0 1.37,0c5.03,0 8.23,-1.37 8.23,-3.2c0,-3.66 -15.55,0.46 -15.55,-2.29c5.49,0.91 6.4,0 7.32,-0.46" id="svg_53"/>
   <path fill="#FFFFFF" class="st1" d="m102.83,127.76c0,-1.83 -1.83,-3.66 -3.66,-3.66c-1.83,0 -3.66,1.83 -3.66,3.66c0,1.83 1.83,3.66 3.66,3.66c2.29,0 3.66,-1.83 3.66,-3.66" id="svg_54"/>
   <path fill="#FFFFFF" class="st1" d="m101.46,117.7c0,-1.83 -1.83,-3.66 -3.66,-3.66c-1.83,0 -3.66,1.83 -3.66,3.66c0,1.83 1.83,3.66 3.66,3.66c2.29,0 3.66,-1.37 3.66,-3.66" id="svg_55"/>
   <path fill="#FFFFFF" class="st1" d="m103.75,113.13c2.29,0 3.66,-1.83 3.66,-3.66c0,-1.83 -1.83,-3.66 -3.66,-3.66c-1.83,0 -3.66,1.83 -3.66,3.66c0,2.29 1.83,3.66 3.66,3.66" id="svg_56"/>
   <path fill="#FFFFFF" class="st1" d="m113.81,112.67c2.29,0 3.66,-1.83 3.66,-3.66c0,-1.83 -1.83,-3.66 -3.66,-3.66c-1.83,0 -3.66,1.83 -3.66,3.66c0,1.83 1.37,3.66 3.66,3.66" id="svg_57"/>
   <path fill="#FFFFFF" class="st1" d="m155.88,105.81c1.37,1.37 3.66,1.37 5.49,0c1.37,-1.37 1.37,-3.66 0,-5.03c-1.37,-1.37 -3.66,-1.37 -5.49,0c-1.37,0.91 -1.37,3.66 0,5.03" id="svg_58"/>
   <path fill="#FFFFFF" class="st1" d="m155.42,97.58c1.37,-1.37 1.37,-3.66 0,-5.49c-1.37,-1.37 -3.66,-1.37 -5.49,0c-1.37,1.37 -1.37,3.66 0,5.49c1.37,1.83 3.66,1.83 5.49,0" id="svg_59"/>
   <path fill="#FFFFFF" class="st1" d="m145.36,96.21c1.37,-1.37 1.37,-3.66 0,-5.49c-1.37,-1.37 -3.66,-1.37 -5.49,0c-1.37,1.37 -1.37,3.66 0,5.49c1.83,1.37 4.12,1.37 5.49,0" id="svg_60"/>
   <path fill="#FFFFFF" class="st1" d="m136.67,102.61c1.37,-1.37 1.37,-3.66 0,-5.49c-1.37,-1.37 -3.66,-1.37 -5.49,0c-1.37,1.37 -1.37,3.66 0,5.49c1.83,1.37 4.12,1.37 5.49,0" id="svg_61"/>
   <path fill="#FFFFFF" class="st1" d="m112.89,97.12l3.2,6.4l3.66,-4.57c0,0 0.46,0 0.46,0c0.46,2.29 0.46,5.94 0.46,8.23c0,2.74 2.29,4.57 4.57,4.57c2.74,0 4.57,-2.29 4.57,-4.57c0,-1.83 -0.91,-3.2 -2.74,-4.12c-1.83,-1.37 -4.12,-3.2 -5.49,-5.03c0,0 0,-0.46 0,-0.46l6.4,0.46l-2.29,-6.86l-4.57,4.12c0,0 0,0 -0.46,0l-0.46,-6.86l-6.4,2.29l4.57,5.03c0,0 0,0.46 -0.46,0.46l-5.03,0.91z" id="svg_62"/>
   <path fill="#FFFFFF" class="st1" d="m156.34,109.01c1.37,2.29 1.83,3.2 2.29,5.03c-0.91,-0.46 -2.29,-1.83 -3.66,-3.66l0.91,8.69c0.91,-1.37 1.83,-2.74 3.2,-3.2c-0.46,5.49 -2.74,7.77 -4.57,8.23c-2.29,0.46 -4.12,-0.91 -4.57,-2.74c-0.46,-2.74 1.83,-4.12 4.12,-1.83c0.46,-5.03 -3.66,-5.03 -5.49,-2.74c2.29,-5.03 1.37,-8.23 -3.2,-10.97c-2.74,4.57 -1.83,7.77 1.83,11.43c-3.66,-1.83 -6.4,1.37 -3.66,5.03c0.46,-3.2 3.66,-2.74 4.12,0c0.46,2.29 -1.83,5.03 -5.49,6.4c-5.49,1.83 -6.86,-1.83 -8.23,-4.57c1.37,-0.91 4.12,-0.46 6.86,1.37l-2.74,-8.69c-1.37,3.2 -3.2,4.12 -5.03,5.03c0,-2.29 1.83,-7.32 1.83,-7.32l-10.06,4.12c0,0 4.57,2.29 6.4,4.12c-2.29,0.91 -4.12,1.37 -7.32,0l4.12,7.77c0.91,-3.66 2.74,-5.49 4.12,-5.94c0.91,3.2 2.29,6.86 -2.74,9.15c-3.66,1.83 -6.86,1.37 -8.23,-0.91c-1.37,-2.29 0,-5.03 3.2,-3.2c-0.46,-5.03 -4.57,-5.03 -5.94,-1.37c0,-5.03 -1.37,-8.23 -6.4,-9.6c-1.37,5.03 0.46,8.23 5.49,10.06c-2.74,-0.46 -5.94,2.74 -1.83,5.94c0,-3.2 2.74,-3.66 4.12,-1.37c0.91,1.37 0.91,3.66 -1.37,5.03c-1.83,0.91 -5.03,0.91 -9.15,-2.74c1.37,-0.46 2.74,-0.46 4.57,0l-5.49,-6.86c0.46,2.29 0,4.12 -0.46,5.03c-1.37,-1.37 -1.37,-2.29 -2.29,-5.03l-4.12,3.66c4.12,2.29 8.69,6.4 14.18,13.72c5.94,-3.66 16.46,-8.69 22.86,-11.43c6.4,-2.74 17.38,-6.4 24.24,-7.77c-1.37,-9.15 -0.91,-15.09 0.46,-19.66l-6.86,1.83z" id="svg_63"/>
   <path fill="#FFFFFF" class="st1" d="m168.22,158.4c-5.03,4.12 -12.35,0.46 -15.09,-5.03c7.32,-2.74 15.55,-6.4 21.03,-9.6c-5.49,7.77 -1.83,11.43 -5.94,14.63m-1.37,53.96c-6.86,2.74 -11.89,-3.2 -13.26,-6.86c-1.37,-4.12 -2.29,-7.32 -0.91,-8.69c2.74,-2.74 3.66,-5.03 1.83,-8.69c-1.83,-4.12 -6.4,-2.29 -10.97,-0.91c2.29,-4.12 2.29,-6.86 -0.46,-6.4c-3.66,0.46 -3.66,6.4 -5.49,5.49c-1.83,-0.46 -0.91,-4.12 -0.91,-5.94c0,-2.29 1.83,-3.2 4.12,-4.57l19.66,-7.32c2.29,-0.91 4.12,-1.37 5.94,0.46c1.37,1.37 4.57,2.74 3.2,4.57c-0.91,1.83 -5.03,-2.29 -7.77,0c-2.29,1.83 -0.46,3.66 4.12,5.03c-4.12,2.29 -8.69,4.12 -7.32,8.23c1.37,3.66 3.2,4.57 7.32,4.57c2.29,0 3.66,3.2 5.49,6.86c2.29,4.12 2.74,11.43 -4.57,14.18m-37.04,-38.87c-5.03,0.46 -5.03,-4.57 -14.18,-6.86c6.4,-1.37 14.63,-4.57 21.95,-7.32c1.37,5.94 -0.91,13.26 -7.77,14.18m108.37,172.85c1.37,-4.12 -5.94,-8.69 -6.86,-14.18c-0.91,-5.94 0,-10.97 -6.86,-18.75c-6.4,-7.32 -28.81,-31.55 -35.67,-38.87c1.83,0 5.49,-0.91 9.6,2.74c2.29,2.29 7.32,6.86 11.43,10.97c5.94,-15.09 13.26,-26.52 23.78,-37.95c1.37,-1.37 2.74,-3.2 4.12,-4.57c-3.66,1.37 -9.6,2.29 -13.26,4.57c-0.46,-6.4 0.46,-11.89 -4.12,-16c1.83,-9.15 0,-20.12 -20.12,-33.84c10.52,2.74 16.92,11.89 24.69,4.57c-7.32,0 -7.32,-16 -33.38,-28.81c10.06,0 17.83,16 29.27,6.86c-10.97,-1.37 -14.63,-20.58 -33.84,-26.52c6.86,0.91 13.72,4.12 19.66,-3.66c-6.86,1.83 -10.97,-4.57 -18.29,-5.03c2.74,-8.23 2.29,-13.72 -0.91,-20.12c-5.03,0.46 -10.52,1.83 -14.18,5.03c-0.46,-4.57 -5.49,-5.03 -9.6,-4.57c0,1.83 1.37,5.03 -0.91,5.49c-3.66,0.46 -15.09,3.66 -24.24,7.32c-9.15,3.66 -19.21,10.06 -22.41,11.89c-1.83,1.37 -3.2,-1.83 -4.57,-3.2c-3.2,2.74 -6.4,6.4 -4.12,9.6c-5.03,0.46 -10.52,1.83 -15.09,5.49c0,5.94 5.03,11.43 11.89,14.63c-11.89,11.89 -1.37,23.32 -11.89,33.38c15.09,0.46 12.35,-20.12 20.12,-23.32c-0.91,14.63 -9.15,17.38 -9.15,32.92c0,8.23 5.03,17.38 0.46,23.32c12.35,-3.66 9.15,-31.09 16.92,-39.33c1.37,4.57 0.46,9.15 -0.91,14.18c-4.57,12.8 0.46,30.64 -6.4,36.12c12.8,-1.37 14.18,-21.95 24.69,-29.27c-9.15,18.29 -18.29,57.62 -31.55,77.28c-21.95,29.27 -34.75,65.39 -54.42,65.39c-8.69,0 -15.55,-5.49 -15.55,-16.46c0,-33.38 57.16,-56.24 57.16,-91.91c0,-16 -12.8,-21.95 -21.03,-21.95c-5.49,0 -11.89,2.74 -17.38,7.32c-2.29,-0.91 -4.57,-1.37 -6.86,-1.37c-20.12,0 -15.09,36.58 -32.47,36.12c6.86,4.12 19.21,-3.66 26.06,-13.72c-2.74,23.78 -37.04,17.38 -34.3,45.73c4.57,-22.41 58.99,-18.75 58.99,-52.59c0,-3.66 -1.83,-6.86 -4.57,-9.6c4.12,-2.74 7.77,-3.66 11.43,-3.66c6.4,0 12.35,5.03 12.35,14.18c0,29.72 -57.16,54.87 -57.16,91.45c0,6.4 1.83,11.43 4.57,15.55c-4.12,1.83 -8.23,0.91 -11.43,-3.2c-0.46,9.6 13.26,15.55 21.49,10.52c1.83,0.46 3.66,0.91 5.94,1.37c-2.74,6.86 -11.43,9.15 -16,8.69c14.18,10.97 38.41,-3.66 37.04,-16c10.97,-9.15 18.29,-24.24 26.06,-34.3c-0.46,2.29 -0.91,4.57 -1.37,6.86c-8.23,14.63 -16,28.35 -17.83,47.56c-1.83,16.46 -10.06,31.09 -21.49,31.09c-2.74,0 -6.86,-3.2 -8.69,-1.83c-3.66,3.2 0,6.4 0,9.15c0,4.57 -9.15,9.15 -9.15,23.78c0,6.4 3.66,14.18 2.29,18.29c3.66,-1.83 8.69,-8.23 10.52,-16c4.12,19.21 -8.23,18.29 0.46,35.21c0.91,-5.49 6.86,-7.77 10.06,-5.49c3.2,2.29 1.83,4.12 -0.91,6.4c-2.74,2.29 -5.03,15.09 6.86,14.18c-2.29,-1.37 -2.29,-4.57 3.2,-5.94c7.77,-1.37 10.06,1.83 18.75,1.83c5.03,0 6.86,-6.86 10.97,-6.86s4.12,3.2 2.74,5.49c6.86,-1.83 7.77,-5.49 7.77,-9.15c0,-3.66 -3.2,-5.94 -0.91,-7.32c2.29,-1.37 10.06,0 6.86,6.4c4.12,-0.91 5.94,-3.66 5.94,-8.23s-5.49,-7.77 -10.97,-6.86c-0.91,-3.2 -5.49,-4.57 -9.6,-4.57c-9.15,0 -7.77,7.32 -14.18,7.32c-10.06,0 -20.12,-13.26 -20.12,-35.67c0,-11.89 12.8,-15.09 21.95,-19.21c9.15,-4.12 25.15,-13.72 34.75,-30.18c7.77,-12.8 7.77,-26.52 6.86,-42.98c12.8,7.32 14.63,17.83 14.63,25.61c0,10.06 -5.03,14.18 -9.15,16c-3.66,1.83 -4.57,0.91 -5.03,3.2c-0.46,2.74 1.37,4.12 2.74,5.03c4.57,2.29 3.66,6.86 5.03,11.89c1.37,5.03 5.49,12.35 12.8,17.83c0.91,-3.2 0.46,-7.77 0,-14.18c10.06,5.03 1.83,24.69 21.03,24.69c-3.66,-1.83 -2.74,-7.32 -0.46,-7.77c1.83,-0.91 4.57,1.37 8.23,6.4c3.66,5.03 2.74,4.57 11.89,4.57c9.15,0 5.03,-3.2 9.6,-3.2c5.03,0 4.57,5.49 1.83,9.6c8.23,-2.29 10.52,-8.69 7.77,-15.09c7.32,-3.66 10.97,1.83 11.89,5.49c6.86,-6.86 0,-15.55 -5.49,-16c0,-2.74 -2.29,-5.49 -5.03,-5.49c-2.74,0 -5.94,-0.46 -9.15,0c-3.2,0 -5.03,5.03 -9.15,5.03c-11.89,0 -36.12,-21.95 -36.12,-31.55s22.86,-15.09 22.86,-29.72c0,-19.21 -18.75,-25.61 -34.75,-37.95c5.49,-6.4 22.41,-7.77 31.55,-3.2c0.91,-5.49 4.57,-4.12 5.94,-13.26c3.2,8.23 0,15.09 3.2,18.75c2.74,-4.12 9.6,-3.2 9.15,-13.26c2.29,6.4 -2.74,16 2.29,20.12c0.91,-5.03 4.12,-5.94 5.94,-5.94c1.83,0 3.66,1.37 3.66,4.57c0,7.77 -9.6,4.12 -9.6,12.8c0,3.66 4.57,5.03 4.57,7.32c0,2.29 -3.66,5.94 -8.23,2.74c1.37,3.2 4.57,6.4 8.69,6.4c4.12,0 8.69,-3.2 10.52,-7.77c2.29,5.49 0.46,11.43 -3.66,12.35c4.12,2.29 14.18,0 12.8,-12.8c5.49,0.91 8.69,4.57 5.03,11.43c4.57,-0.91 8.69,-3.2 8.69,-8.23c2.74,-3.66 -1.37,-4.57 0.46,-9.6" id="svg_64"/>
   <path fill="#FFFFFF" class="st1" d="m607.21,438.25c0,-6.4 5.49,-11.89 11.89,-11.89c6.4,0 11.89,5.49 11.89,11.89c0,6.4 -5.49,11.89 -11.89,11.89c-6.4,0.46 -11.89,-5.03 -11.89,-11.89m-4.12,0c0,8.69 7.32,16 16,16c8.69,0 16,-7.32 16,-16c0,-8.69 -7.32,-16 -16,-16c-8.69,0 -16,7.32 -16,16" id="svg_65"/>
   <path fill="#FFFFFF" class="st1" d="m550.5,467.51c-4.57,-0.91 -7.77,-4.12 -7.32,-7.77c0.46,-1.83 1.37,-2.74 2.29,-3.2c1.83,-1.37 4.57,-1.83 7.32,-1.37c4.12,0.91 7.32,3.66 7.32,6.86c0,0.46 0,0.46 0,0.91c-0.91,3.2 -5.03,5.49 -9.6,4.57m-7.32,-14.18c-2.29,1.37 -3.66,3.66 -4.12,5.94c-0.46,2.74 0.46,5.49 2.29,8.23c1.83,2.29 5.03,3.66 8.23,4.57c3.2,0.46 6.4,0 9.15,-1.37c2.74,-1.37 4.57,-3.66 5.03,-6.86c0.91,-5.49 -3.66,-10.97 -10.52,-12.35c-3.66,-0.91 -7.32,-0.46 -10.06,1.83" id="svg_66"/>
   <path fill="#FFFFFF" class="st1" d="m453.56,236.59c0,-2.29 1.37,-4.57 3.2,-5.94c1.83,-1.37 4.12,-2.29 5.94,-1.83c0.91,0 2.29,0.46 3.2,1.83c0.91,0.91 0.91,2.29 0.91,3.2c-0.46,1.83 -1.37,4.12 -3.2,5.49c-3.2,2.29 -7.32,2.74 -9.15,0.46c-0.46,-1.37 -0.91,-2.29 -0.91,-3.2m0.91,-9.15c-5.03,4.12 -6.4,10.52 -3.2,14.63c3.2,4.12 10.06,4.12 15.09,0.46c2.74,-2.29 4.57,-5.03 5.03,-8.23c0.46,-2.29 -0.46,-4.57 -1.83,-6.4c-1.37,-1.83 -3.2,-2.74 -5.94,-3.2c-3.2,-0.46 -6.4,0.46 -9.15,2.74" id="svg_67"/>
   <path fill="#FFFFFF" class="st1" d="m530.38,448.77l0,0l0,0zm0,-4.12l0,0c-1.83,0 -2.74,-0.91 -3.66,-1.83c-1.37,-1.83 -2.29,-4.12 -2.29,-6.86c0,-2.74 0.91,-5.03 2.74,-6.86c0.91,-0.91 1.83,-1.83 3.66,-1.83c3.2,0 5.94,4.12 5.94,8.69c0,2.74 -0.91,5.03 -2.74,6.86c-0.46,0.91 -1.83,1.83 -3.66,1.83m-5.94,-18.29c-2.29,2.29 -3.66,5.94 -4.12,9.6l0,0.46c0,3.66 1.37,7.32 3.66,9.6c1.83,1.83 4.12,2.74 6.4,2.74c2.29,0 4.57,-0.91 6.4,-2.74c2.29,-2.29 3.66,-5.94 4.12,-9.6c0,-3.2 -0.91,-6.4 -2.74,-8.69c-1.83,-2.74 -4.57,-4.12 -7.32,-4.12c-2.29,0 -4.57,0.91 -6.4,2.74" id="svg_68"/>
   <path fill="#FFFFFF" class="st1" d="m448.53,312.04c-4.12,-1.83 -6.4,-5.94 -5.03,-9.15c0.91,-1.37 1.83,-2.29 3.2,-2.74c2.29,-0.91 4.57,-0.46 7.32,0.46c2.29,1.37 4.12,3.2 5.03,5.03c0.46,0.91 0.46,2.74 0,4.12c-0.91,1.37 -2.29,2.29 -3.2,2.74c-2.29,0.91 -4.57,0.91 -7.32,-0.46m-3.2,-15.55c-2.29,0.91 -4.57,2.74 -5.49,4.57c-2.29,5.03 0.46,11.89 6.86,14.63c3.66,1.83 7.32,1.83 10.52,0.91c2.29,-0.91 4.57,-2.29 5.49,-4.57c0.91,-2.29 0.91,-4.57 0.46,-7.32c-0.91,-3.2 -3.66,-5.94 -7.32,-7.77c-3.66,-1.37 -7.32,-1.83 -10.52,-0.46" id="svg_69"/>
   <path fill="#FFFFFF" class="st1" d="m561.94,369.66c-2.74,3.66 -7.32,5.03 -10.06,2.74c-2.74,-2.29 -3.2,-6.86 -0.46,-10.52c2.74,-3.66 7.32,-5.03 10.06,-3.2c3.2,2.74 3.2,7.32 0.46,10.97m-18.75,30.18c-2.74,3.66 -7.32,5.03 -10.06,3.2c-2.74,-2.29 -3.2,-6.86 -0.46,-10.52c2.74,-3.66 7.32,-5.03 10.06,-3.2c2.74,1.83 3.2,6.4 0.46,10.52m-64.93,-164.16c2.29,-6.86 6.4,-21.03 6.4,-21.03l7.32,2.74c-2.29,0.91 -4.57,2.74 -6.86,5.03c1.83,0.91 4.57,0.91 6.4,-0.46l-2.74,7.32c-0.46,-1.37 -2.74,-3.66 -4.57,-4.12c-1.37,5.94 2.29,8.23 5.03,9.6c4.57,2.29 7.32,2.74 8.69,0.46c1.37,-2.74 -1.37,-5.94 -5.49,-4.57c-0.46,-3.66 1.83,-5.94 4.12,-5.94c1.83,0 3.66,1.83 4.12,4.12c-0.46,-6.4 2.74,-10.97 8.23,-12.8c2.29,5.94 0.46,10.06 -4.12,14.63c2.29,-0.91 5.03,-0.91 6.4,0.91c1.37,2.29 0.91,5.03 -2.29,6.86c-0.91,-4.12 -5.49,-4.12 -6.86,-1.83c-1.37,2.74 0.46,5.03 4.57,7.32c4.57,2.74 8.69,0.91 10.97,-3.2c-1.37,-0.46 -4.12,0 -6.86,1.37l5.03,-9.15c0.46,1.37 0.91,3.66 3.2,5.49c0.91,-1.83 1.83,-5.49 0.46,-8.69l10.52,5.94c-3.66,0.46 -5.94,3.2 -7.32,4.57c2.74,0.91 5.03,0.46 5.94,0l-5.49,8.69c0,-3.2 -0.91,-5.49 -2.29,-6.4c-2.29,4.12 -1.83,8.23 2.74,10.97c4.12,2.29 7.32,2.74 8.69,0.46c1.37,-2.29 -0.91,-6.4 -5.03,-5.03c0,-3.66 2.29,-5.94 4.57,-5.49c1.83,0 3.66,2.29 4.12,5.03c1.37,-5.94 4.12,-9.6 10.52,-10.97c1.37,5.94 -1.37,10.52 -6.86,13.72c2.29,-0.91 5.03,-0.46 5.94,1.37c1.37,2.29 0.46,5.03 -2.74,6.86c-0.46,-4.12 -5.03,-5.03 -6.4,-2.29c-1.37,2.29 0.46,4.57 5.03,7.32c2.74,1.83 6.4,3.66 10.52,-0.46c-1.37,-1.83 -4.57,-1.83 -5.94,-1.83l5.03,-6.4c0,2.29 1.37,5.03 2.74,5.94c0.91,-3.2 1.37,-6.4 0.91,-8.69l5.94,5.03c0,0 -10.06,10.52 -14.63,16l-67.68,-38.41zm78.65,89.63c0,-0.91 0.46,-2.74 1.37,-3.66c1.37,-0.91 2.74,-1.37 3.66,-1.37c2.29,0 4.57,1.37 6.4,3.2c1.83,1.83 2.74,4.57 2.74,6.86c0,0.91 -0.46,2.29 -1.37,3.66l0,0c-1.37,0.91 -2.74,1.37 -3.66,1.37c-2.29,0 -4.57,-1.37 -6.4,-3.2c-1.83,-2.29 -2.74,-5.03 -2.74,-6.86m28.81,132.61c0.46,-2.29 1.83,-4.57 4.12,-5.94c2.29,-1.37 5.03,-2.29 7.32,-1.83c0.91,0.46 2.29,0.91 3.2,2.29l0,0c0.91,1.37 0.91,2.74 0.46,4.12c-0.46,2.29 -1.83,4.57 -4.12,5.94c-4.12,2.74 -8.69,2.29 -10.52,-0.46c-0.91,-1.83 -0.46,-3.2 -0.46,-4.12m-137.18,-199.83c0,2.29 -0.91,4.57 -2.29,5.49c-0.46,0.46 -1.83,1.37 -3.2,1.37c-2.74,0 -5.03,-3.2 -5.03,-6.86c0,0 0,-0.46 0,-0.46c0,-2.29 0.91,-4.57 2.29,-5.49c0.46,-0.46 1.83,-1.37 3.2,-1.37c1.37,0 2.29,0.91 2.74,1.37c1.83,1.37 2.29,3.66 2.29,5.94m42.53,-87.34c2.29,-4.12 0,-10.97 7.77,-10.97c3.66,0 7.32,3.66 11.89,5.49c-7.32,0.46 -14.18,2.29 -19.66,5.49m123.46,109.29c5.03,14.18 15.55,19.66 23.78,16c-17.83,-2.29 -3.2,-32.47 -26.06,-32.47c-1.37,0 -2.74,0 -3.66,0.46c-4.12,-4.12 -8.23,-5.94 -15.09,-5.94c-9.6,0 -26.52,9.15 -26.52,28.81c0,41.61 48.47,45.27 48.47,81.85c0,10.97 -8.23,17.38 -17.38,17.38c-8.23,0 -14.63,-9.15 -21.49,-23.32c-3.2,-6.86 -10.06,-16 -17.83,-25.61c2.29,1.37 4.57,2.29 7.32,2.29c2.74,0 5.03,-0.91 6.86,-2.29c1.83,-1.83 2.74,-4.12 2.74,-6.4l0,-0.46c0,-3.2 -1.37,-6.86 -4.12,-9.15c-2.74,-2.74 -5.94,-4.57 -9.6,-4.57c-2.74,0 -5.03,0.91 -6.86,2.29c-1.83,1.83 -2.74,4.12 -2.74,6.4l0,0.46c0,1.37 0.46,2.74 0.91,4.12c-10.52,-13.72 -20.12,-26.98 -20.12,-34.3c0,-6.4 4.57,-11.89 10.06,-18.75c0.46,0 1.83,0.91 1.83,0.91l1.37,-1.83c1.83,-2.29 5.94,-6.4 14.18,-15.55l0.46,-0.46l0,0l1.83,-2.29l-5.03,-4.12c1.37,-3.2 2.74,-6.4 3.66,-10.06c1.83,6.86 5.03,10.97 9.6,9.6c-3.2,-6.86 3.2,-16 -0.91,-32.92c4.12,6.4 9.6,10.06 13.72,8.69c-10.52,-9.6 3.2,-22.86 -10.52,-42.98c4.57,1.37 7.77,0.46 9.6,-1.83c-12.8,-1.83 -6.86,-17.83 -29.27,-23.78c5.49,-0.91 8.69,-4.12 7.77,-7.32c-5.94,4.12 -10.97,-7.77 -30.18,-7.77c-1.37,-7.32 -7.77,-14.63 -15.55,-18.29c1.37,5.49 0,10.52 -1.37,14.63l-63.1,-61.73c-1.83,-1.83 -2.74,-2.29 -3.2,-1.37c-0.46,0.46 -0.46,1.83 0.91,3.2l53.96,67.68c-4.12,1.37 -8.23,3.2 -12.35,4.57c-2.74,0.91 -4.57,3.66 -4.57,6.86c-10.06,5.03 -18.75,10.97 -23.32,15.09c-3.2,3.2 -5.94,3.66 -3.2,10.52c0.91,2.74 -2.29,9.15 5.49,4.12c5.03,-3.2 16.92,-9.6 18.29,-5.49c0.91,2.29 -5.03,5.03 -8.69,6.4c-4.12,1.37 -8.23,4.57 -7.77,5.94c0.46,1.37 3.66,0 4.12,1.37c0,1.83 1.37,3.2 3.2,3.2c1.37,0 3.66,-3.2 5.03,-2.29c1.37,0.91 -0.46,8.69 -1.83,10.52c5.94,-0.91 10.06,-6.4 10.06,-10.97c0,-4.57 1.37,-5.49 2.29,-6.4c0.91,-0.46 1.83,5.03 0.91,8.23c3.2,-0.46 6.4,-5.03 5.94,-12.8c1.83,-1.37 3.2,-2.29 4.57,-2.29c1.83,0 5.94,5.49 11.89,5.49c10.52,0 16.46,-8.69 17.38,-12.8c0.46,-3.2 0.46,-6.4 -1.37,-8.69c3.66,3.2 5.03,7.77 5.03,11.43c0,15.09 -26.98,22.41 -37.95,32.92c-0.46,0.46 -0.91,0.91 -1.37,0.91l-12.8,-5.03l-0.91,2.74c0,0 0,0.46 -0.91,2.29c-1.37,4.12 -4.12,13.26 -5.94,18.29c0,0 -0.46,1.83 -0.46,1.83l0.91,0.46c-7.32,10.06 -13.26,21.03 -14.63,32.47c-3.2,-3.2 -5.94,-5.49 -9.15,-8.23c0.46,-0.91 0.46,-2.29 0.46,-3.66c0,-3.2 -0.91,-6.4 -2.74,-8.69c-1.37,-1.83 -3.66,-2.74 -5.94,-2.74c-2.29,0 -4.57,0.46 -5.94,2.29c-0.46,0.46 -0.91,0.91 -0.91,1.37c-0.46,-0.46 -0.91,-0.91 -1.37,-0.91c-4.12,-3.2 -9.15,-6.86 -12.35,-10.52c-1.37,-1.37 -2.74,-2.29 -5.49,-2.29c-0.91,0 -3.66,0 -5.49,0c-1.83,0 -2.74,1.37 -5.03,3.2c-0.91,0.91 -4.12,3.2 -7.32,5.49c1.37,1.37 3.2,3.2 4.57,5.03c0.91,0.91 1.37,1.83 2.29,2.74c0.91,-0.46 1.83,-1.37 2.29,-1.83c1.37,-0.91 3.2,-1.37 4.57,-1.37c1.83,0 4.12,1.37 5.49,3.66c0.91,1.83 11.43,15.09 19.66,24.24c-0.91,0.46 -1.83,0.46 -2.74,0.91c-3.66,1.37 -11.89,1.37 -15.55,0.91c-3.66,-0.46 -4.12,-1.37 -6.86,2.74c-0.91,1.37 -2.29,3.2 -3.2,4.57c-1.37,1.37 -2.29,3.2 0.46,7.32c3.66,6.4 12.8,22.86 16,30.18c3.2,7.32 6.86,8.69 12.35,10.97c5.94,2.29 16,8.23 16.92,9.6l0.46,-5.49c-1.83,-1.83 -7.32,-3.66 -9.6,-4.57c-2.29,-0.91 -2.74,-1.83 0,-1.83c2.29,0 9.6,2.74 14.63,4.57c-1.37,-5.49 -6.86,-11.89 -10.06,-15.09c-4.12,-1.37 -8.69,-1.37 -10.06,0c0,1.37 -0.46,2.74 -2.29,2.74c-1.83,0 -2.74,-1.37 -2.29,-2.74c0.46,-1.83 3.2,-2.29 2.29,-5.49c-0.46,-3.2 -4.57,-3.66 -6.86,-4.12c-3.66,-5.03 -7.77,-12.8 -9.6,-16c-1.83,-3.2 -0.91,-5.03 0.46,-5.94c3.2,-2.29 9.6,1.37 22.41,2.29c4.57,0.46 10.06,0.46 16,0.91c1.83,14.63 7.77,28.81 28.35,34.3c10.06,2.29 20.58,10.06 24.24,19.66c-41.15,-0.91 -48.01,15.55 -48.01,30.64c0,17.38 14.63,16.46 14.63,29.27c0,11.43 -34.75,16 -45.27,17.38c-8.69,1.37 -14.18,3.2 -18.29,7.77c-4.12,4.12 -8.69,8.23 -16.46,16c0,0 3.2,0.91 6.4,0.46l5.94,-7.77c1.83,-2.74 2.74,-4.57 4.12,-4.57c1.37,0 0.46,2.29 -0.91,5.03l-5.03,8.23c20.58,1.37 21.49,-6.4 21.49,-9.15c0,-3.2 -5.03,-5.03 -2.29,-7.32c2.74,-1.83 5.49,-0.46 7.77,2.29c2.29,2.74 3.2,5.03 8.69,2.74c0,0 44.36,-18.29 49.84,-21.03c5.03,-2.29 3.66,-4.57 0.46,-6.86c-3.2,-2.74 -3.66,-7.32 -3.66,-11.89c0,-13.26 8.23,-17.83 22.41,-17.38c-0.46,2.29 -0.46,4.57 -0.46,6.4c0,21.03 31.55,41.61 40.24,41.61c3.66,0 9.15,-2.74 9.15,9.6c0.46,9.15 2.29,16 0.46,26.52c-1.83,10.52 -4.57,12.35 -11.43,16.92c-6.4,4.57 -12.35,18.75 -15.09,21.49c2.74,1.83 5.94,2.29 8.23,-4.57c1.83,-5.94 4.12,-9.6 6.86,-10.97c-2.29,6.4 -4.57,15.55 -5.49,18.29c8.23,1.37 21.03,-5.94 21.03,-11.89c0,-5.49 -4.57,-5.03 -4.57,-9.15c0,-1.83 1.83,-3.66 4.57,-3.66c3.2,0 5.94,2.74 5.94,3.66c3.66,-1.83 5.94,-5.49 5.94,-13.72c0,-3.2 0,-6.86 -0.46,-10.06c0,0.46 0.46,0.91 0.91,1.37c1.37,2.29 4.12,3.66 7.32,4.12c2.74,0.46 5.94,-0.46 8.69,-2.29c3.2,-2.29 5.49,-5.03 5.94,-8.69c0,-0.46 0.46,-1.37 0.46,-1.83c0,-1.83 -0.46,-3.66 -1.37,-5.03c-1.37,-1.83 -3.66,-3.2 -5.94,-4.12c-3.2,-0.91 -6.86,0 -10.06,2.29c-2.74,1.83 -5.03,4.57 -5.94,7.77c-0.46,-11.43 -1.37,-22.41 -1.37,-26.52c0.46,-6.4 0.91,-9.15 -1.37,-10.06c-2.29,-0.91 -4.57,2.74 -7.77,2.74c-3.2,0 -12.35,-8.69 -12.35,-17.83c0,-9.15 9.6,-20.58 9.15,-33.38c0,-3.66 2.29,-5.94 3.66,-2.29c1.83,4.12 4.57,10.06 8.69,14.63c-2.74,15.55 14.63,30.64 28.81,19.66c-6.86,0.91 -11.89,-5.03 -15.09,-11.43c1.37,0 2.29,0.46 3.66,0.46c0.91,0 1.37,0 2.29,0c5.03,5.94 20.58,5.49 24.69,-9.6c-2.74,3.2 -8.23,5.49 -12.35,5.03c5.94,-4.57 9.15,-12.35 9.15,-20.12c0,-39.78 -48.01,-44.36 -48.01,-80.02c0,-13.26 11.89,-21.95 19.66,-21.95c3.2,0 5.49,0.91 7.32,2.29c-3.2,3.2 -4.57,7.77 -4.57,13.72c1.37,28.35 47.56,26.98 48.47,40.7c8.23,-19.21 -26.52,-12.8 -27.89,-40.24" id="svg_70"/>
  </g>
 </g>
</svg>